<svg width="24" height="24" viewBox="0 0 24 24" fill="none" xmlns="http://www.w3.org/2000/svg">
<path d="M18.3279 22.5018C17.4129 22.5018 16.1276 22.1708 14.2029 21.0955C11.8624 19.783 10.0521 18.5713 7.72432 16.2496C5.47995 14.0066 4.38776 12.5544 2.85917 9.77286C1.13229 6.63223 1.42667 4.98598 1.75573 4.28239C2.1476 3.44145 2.72604 2.93848 3.4737 2.43926C3.89836 2.16103 4.34776 1.92252 4.8162 1.72676C4.86307 1.70661 4.90667 1.68739 4.94557 1.67004C5.1776 1.56551 5.52917 1.40754 5.97448 1.57629C6.27167 1.68786 6.53698 1.91614 6.95229 2.32629C7.80401 3.16629 8.96792 5.03708 9.39729 5.95583C9.68557 6.57505 9.87636 6.9838 9.87682 7.44223C9.87682 7.97895 9.60682 8.39286 9.27917 8.83958C9.21776 8.92348 9.15682 9.00364 9.09776 9.08145C8.74104 9.5502 8.66276 9.68567 8.71432 9.92755C8.81886 10.4136 9.59839 11.8607 10.8795 13.139C12.1606 14.4172 13.5659 15.1475 14.0539 15.2516C14.306 15.3055 14.4443 15.224 14.9281 14.8546C14.9975 14.8016 15.0687 14.7468 15.1432 14.6919C15.6429 14.3202 16.0376 14.0572 16.5617 14.0572H16.5645C17.0206 14.0572 17.411 14.255 18.0579 14.5813C18.9017 15.0069 20.8287 16.1558 21.6739 17.0085C22.085 17.4229 22.3142 17.6872 22.4262 17.984C22.595 18.4307 22.436 18.7808 22.3325 19.0152C22.3151 19.0541 22.2959 19.0968 22.2757 19.1441C22.0784 19.6117 21.8385 20.0602 21.559 20.4838C21.0607 21.2291 20.5559 21.8061 19.7131 22.1985C19.2803 22.4032 18.8067 22.5069 18.3279 22.5018Z" fill="#18315C"/>
</svg>
