<svg width="32" height="32" viewBox="0 0 32 32" fill="none" xmlns="http://www.w3.org/2000/svg">
<path d="M23.9998 12.8C24.9744 12.8 25.926 12.5033 26.7279 11.9494C27.5299 11.3955 28.1442 10.6105 28.4892 9.699C28.8342 8.78746 28.8935 7.79249 28.6593 6.84641C28.425 5.90033 27.9084 5.04797 27.1779 4.40267C26.4475 3.75738 25.5379 3.34974 24.5702 3.23395C23.6024 3.11816 22.6224 3.29972 21.7603 3.75447C20.8983 4.20923 20.1951 4.91563 19.7443 5.77975C19.2935 6.64387 19.1164 7.62475 19.2366 8.59196L11.3326 12.544C10.6546 11.8901 9.79914 11.4502 8.8729 11.2791C7.94665 11.1079 6.99052 11.2131 6.1236 11.5814C5.25669 11.9497 4.51731 12.565 3.99756 13.3506C3.47782 14.1361 3.20068 15.0572 3.20068 15.9992C3.20068 16.9411 3.47782 17.8622 3.99756 18.6477C4.51731 19.4333 5.25669 20.0486 6.1236 20.4169C6.99052 20.7853 7.94665 20.8904 8.8729 20.7192C9.79914 20.5481 10.6546 20.1082 11.3326 19.4544L19.2366 23.4064C19.0966 24.5299 19.3583 25.6668 19.9754 26.6161C20.5926 27.5654 21.5255 28.266 22.6092 28.594C23.6929 28.9221 24.8577 28.8564 25.8977 28.4087C26.9377 27.961 27.7859 27.1601 28.2925 26.1475C28.7991 25.1348 28.9314 23.9757 28.6661 22.875C28.4007 21.7742 27.7548 20.8027 26.8425 20.1322C25.9301 19.4616 24.8101 19.1352 23.6803 19.2105C22.5506 19.2859 21.4838 19.7582 20.6686 20.544L12.7646 16.592C12.813 16.1988 12.813 15.8011 12.7646 15.408L20.6686 11.456C21.5294 12.288 22.7038 12.8 23.9998 12.8Z" fill="#18315C"/>
</svg>
