<svg width="108" height="107" viewBox="0 0 108 107" fill="none" xmlns="http://www.w3.org/2000/svg">
<rect x="0.580078" width="107" height="107" rx="53.5" fill="#18315C"/>
<g clip-path="url(#clip0_3184_2222)">
<g clip-path="url(#clip1_3184_2222)">
<g clip-path="url(#clip2_3184_2222)">
<path d="M67.6335 39.5H40.0305C38.1327 39.5 36.5801 41.0527 36.5801 42.9504V63.6527C36.5801 65.5504 38.1327 67.1031 40.0305 67.1031H67.6335C69.5312 67.1031 71.0839 65.5504 71.0839 63.6527V42.9504C71.0839 41.0527 69.5312 39.5 67.6335 39.5ZM66.9435 46.8321L55.6607 53.8881C54.5393 54.5954 53.1247 54.5954 52.0033 53.8881L40.7205 46.8321C40.5475 46.735 40.3961 46.6038 40.2752 46.4464C40.1544 46.2891 40.0668 46.1088 40.0176 45.9166C39.9685 45.7244 39.9589 45.5243 39.9893 45.3282C40.0198 45.1322 40.0897 44.9444 40.1948 44.7762C40.3 44.6079 40.4382 44.4628 40.601 44.3495C40.7639 44.2362 40.948 44.1572 41.1423 44.1171C41.3366 44.0771 41.537 44.0769 41.7314 44.1165C41.9258 44.1562 42.1101 44.2348 42.2732 44.3478L53.832 51.5763L65.3908 44.3478C65.5539 44.2348 65.7382 44.1562 65.9326 44.1165C66.127 44.0769 66.3274 44.0771 66.5217 44.1171C66.716 44.1572 66.9001 44.2362 67.063 44.3495C67.2258 44.4628 67.364 44.6079 67.4692 44.7762C67.5743 44.9444 67.6442 45.1322 67.6747 45.3282C67.7051 45.5243 67.6955 45.7244 67.6463 45.9166C67.5972 46.1088 67.5096 46.2891 67.3888 46.4464C67.2679 46.6038 67.1165 46.735 66.9435 46.8321Z" fill="white"/>
</g>
</g>
</g>
<defs>
<clipPath id="clip0_3184_2222">
<rect width="35" height="28" fill="white" transform="translate(36.5801 39.5)"/>
</clipPath>
<clipPath id="clip1_3184_2222">
<rect width="35" height="28" fill="white" transform="translate(36.5801 39.5)"/>
</clipPath>
<clipPath id="clip2_3184_2222">
<rect width="35" height="28" fill="white" transform="translate(36.5801 39.5)"/>
</clipPath>
</defs>
</svg>
