<svg width="80" height="80" viewBox="0 0 80 80" fill="none" xmlns="http://www.w3.org/2000/svg">
<path d="M30.1808 4.44835C30.4732 4.44793 30.7655 4.44732 31.0579 4.44654C31.6689 4.44562 32.2798 4.44695 32.8908 4.44988C33.671 4.45344 34.4511 4.45139 35.2312 4.44764C35.8345 4.44538 36.4377 4.44611 37.0409 4.44772C37.3284 4.44814 37.616 4.44764 37.9035 4.44617C41.0571 4.43365 41.0571 4.43365 42.1185 5.37141C42.8211 6.13458 43.0098 6.96696 42.9994 7.9774C42.9979 8.23723 42.9979 8.23723 42.9963 8.50231C42.9924 8.76999 42.9924 8.76999 42.9884 9.04308C42.987 9.22516 42.9856 9.40724 42.9841 9.59484C42.9804 10.0425 42.9753 10.49 42.9689 10.9376C43.1364 10.9359 43.3039 10.9341 43.4765 10.9324C45.0581 10.9165 46.6397 10.9048 48.2213 10.8971C49.0344 10.8931 49.8474 10.8875 50.6604 10.8787C51.4456 10.8702 52.2307 10.8655 53.0159 10.8635C53.3149 10.862 53.6139 10.8592 53.9129 10.855C54.333 10.8493 54.7528 10.8486 55.1728 10.8489C55.3568 10.8447 55.3568 10.8447 55.5444 10.8404C56.4747 10.849 57.0856 11.1449 57.8126 11.7189C58.7436 12.6988 58.7952 13.5839 58.7856 14.8761C58.7856 15.0362 58.7857 15.1964 58.7857 15.3613C58.7855 15.8898 58.7831 16.4181 58.7806 16.9465C58.78 17.3132 58.7796 17.68 58.7793 18.0467C58.7781 19.0112 58.775 19.9758 58.7716 20.9403C58.7684 21.9248 58.7669 22.9093 58.7654 23.8938C58.762 25.8251 58.7567 27.7564 58.7501 29.6876C58.8444 29.6968 58.9387 29.7061 59.0358 29.7156C59.1607 29.7285 59.2856 29.7414 59.4142 29.7547C59.5992 29.7734 59.5992 29.7734 59.7878 29.7925C60.3494 29.8708 60.859 30.0419 61.3868 30.2442C61.4941 30.2853 61.6015 30.3263 61.7121 30.3685C63.6841 31.1622 64.9794 32.4109 65.8186 34.3476C66.3914 35.9839 66.1763 37.7675 65.6251 39.3751C65.7212 39.4202 65.8172 39.4653 65.9162 39.5118C66.3971 39.765 66.5923 40.0008 66.8751 40.4689C67.1238 41.4604 67.0908 42.2272 66.5626 43.1251C66.1412 43.649 65.9204 43.8722 65.2638 44.0333C65.1252 44.043 64.9866 44.0526 64.8438 44.0626C64.83 44.1919 64.8161 44.3212 64.8017 44.4545C64.6646 45.1103 64.4159 45.6378 64.1114 46.2306C64.055 46.3413 63.9987 46.4521 63.9406 46.5662C63.5299 47.357 63.0942 48.0819 62.5001 48.7501C62.4226 48.842 62.345 48.9338 62.2651 49.0284C60.8674 50.5643 59.017 51.297 56.9752 51.4442C54.5771 51.4949 52.5397 50.8908 50.7813 49.2189C50.1258 48.5059 49.589 47.7737 49.1223 46.926C49.0524 46.7994 48.9826 46.6728 48.9106 46.5424C48.8577 46.446 48.8047 46.3495 48.7501 46.2501C48.5596 46.2497 48.3691 46.2494 48.1728 46.249C43.649 46.24 39.1253 46.2286 34.6015 46.2143C34.0445 46.2126 33.4875 46.2108 32.9306 46.2091C32.8197 46.2088 32.7088 46.2084 32.5945 46.2081C30.7999 46.2025 29.0053 46.1986 27.2107 46.1954C25.3687 46.192 23.5268 46.1868 21.6849 46.18C20.6505 46.1762 19.6161 46.1733 18.5817 46.1724C17.6081 46.1714 16.6344 46.1683 15.6608 46.1635C15.3035 46.1621 14.9463 46.1615 14.589 46.1618C14.1009 46.1621 13.6128 46.1595 13.1247 46.1562C12.9131 46.1573 12.9131 46.1573 12.6973 46.1585C11.6789 46.1471 10.7712 46.007 9.96226 45.3334C9.87807 45.2298 9.79388 45.1263 9.70713 45.0196C9.57722 44.8656 9.57722 44.8656 9.44468 44.7084C8.9294 43.948 8.86077 43.258 8.86457 42.3575C8.86386 42.234 8.86315 42.1104 8.86242 41.9831C8.86044 41.5695 8.8607 41.156 8.86096 40.7424C8.86002 40.4457 8.85896 40.149 8.85778 39.8522C8.85502 39.0464 8.85428 38.2406 8.85408 37.4348C8.85386 36.9313 8.8532 36.4277 8.85237 35.9241C8.84948 34.167 8.8482 32.4098 8.84844 30.6527C8.84863 29.0154 8.84534 27.3782 8.8404 25.7409C8.83631 24.3347 8.83464 22.9285 8.83484 21.5223C8.83492 20.6826 8.83403 19.843 8.83072 19.0034C8.82769 18.2135 8.82767 17.4236 8.82994 16.6337C8.83027 16.3443 8.82953 16.0548 8.82764 15.7653C8.82522 15.3692 8.82669 14.9733 8.82909 14.5772C8.82748 14.4634 8.82587 14.3497 8.82422 14.2324C8.83662 13.3041 9.11027 12.4775 9.75749 11.7917C10.6352 11.0334 11.2715 10.8919 12.4127 10.9021C12.6117 10.9021 12.6117 10.9021 12.8147 10.902C13.2527 10.9022 13.6906 10.9046 14.1285 10.9071C14.4324 10.9077 14.7363 10.9081 15.0402 10.9084C15.8396 10.9096 16.6389 10.9127 17.4383 10.9162C18.2542 10.9193 19.0701 10.9208 19.886 10.9223C21.4865 10.9257 23.0871 10.931 24.6876 10.9376C24.6851 10.825 24.6827 10.7124 24.6802 10.5964C24.6704 10.0819 24.6643 9.5674 24.6583 9.05284C24.6544 8.8757 24.6504 8.69855 24.6464 8.51604C24.6357 7.2927 24.7772 6.56471 25.4103 5.51769C26.7258 4.2368 28.4724 4.43966 30.1808 4.44835ZM26.4259 6.70909C26.1155 7.27819 26.0747 7.79336 26.0786 8.43517C26.0791 8.58119 26.0796 8.72722 26.0801 8.87767C26.0814 9.02894 26.0827 9.1802 26.0841 9.33605C26.0848 9.48973 26.0855 9.64341 26.0862 9.80174C26.0881 10.1804 26.0909 10.559 26.0939 10.9376C26.9189 10.9376 27.7439 10.9376 28.5939 10.9376C28.61 10.5928 28.6261 10.248 28.6427 9.89269C28.6788 9.11869 28.732 8.58716 29.2189 7.96886C29.6998 7.6685 30.0717 7.61638 30.6339 7.61344C30.8694 7.61121 30.8694 7.61121 31.1096 7.60893C31.2782 7.60907 31.4468 7.60922 31.6206 7.60936C31.7947 7.60869 31.9689 7.60802 32.1483 7.60733C32.5164 7.60644 32.8846 7.60636 33.2527 7.60703C33.8158 7.60753 34.3787 7.60386 34.9418 7.5999C35.2996 7.59955 35.6573 7.59944 36.0151 7.5996C36.2676 7.59744 36.2676 7.59744 36.5252 7.59524C37.9827 7.60424 37.9827 7.60424 38.5939 8.12511C39.1512 8.88413 39.0132 10.0479 39.0626 10.9376C39.836 10.9376 40.6095 10.9376 41.4064 10.9376C41.4232 10.3027 41.4356 9.6683 41.4454 9.03331C41.4506 8.85355 41.4559 8.67378 41.4613 8.48857C41.4633 8.31485 41.4653 8.14113 41.4674 7.96215C41.4707 7.80259 41.4739 7.64303 41.4773 7.47863C41.3852 6.89775 41.2043 6.65541 40.7814 6.25011C40.0686 5.95009 39.4137 5.89194 38.6503 5.89469C38.5346 5.89389 38.4189 5.8931 38.2997 5.89227C37.9194 5.89011 37.5392 5.89025 37.1589 5.89061C36.8931 5.89 36.6273 5.88933 36.3616 5.88858C35.8053 5.88742 35.2491 5.88746 34.6929 5.88828C33.9819 5.88919 33.2709 5.88654 32.5599 5.88292C32.0112 5.88061 31.4626 5.88048 30.9139 5.88097C30.6519 5.88089 30.3898 5.88007 30.1277 5.8785C29.7606 5.87656 29.3935 5.87763 29.0263 5.87943C28.9192 5.87824 28.8121 5.87705 28.7018 5.87582C27.8295 5.88525 27.0485 6.06568 26.4259 6.70909ZM30.0001 9.21886C30.0001 9.78605 30.0001 10.3532 30.0001 10.9376C32.5267 10.9376 35.0532 10.9376 37.6564 10.9376C37.6564 10.3704 37.6564 9.80323 37.6564 9.21886C37.2776 8.84013 37.1859 8.86697 36.6679 8.86592C36.5281 8.86494 36.3884 8.86395 36.2444 8.86294C36.0932 8.86357 35.942 8.8642 35.7862 8.86485C35.6314 8.86456 35.4765 8.86426 35.3169 8.86395C34.9891 8.86374 34.6612 8.86431 34.3334 8.86562C33.8303 8.86729 33.3273 8.86563 32.8242 8.86363C32.5062 8.86384 32.1882 8.86424 31.8702 8.86485C31.6434 8.86391 31.6434 8.86391 31.412 8.86294C31.2723 8.86392 31.1325 8.86491 30.9886 8.86592C30.8037 8.8663 30.8037 8.8663 30.615 8.86668C30.2755 8.88 30.2755 8.88 30.0001 9.21886ZM10.4689 13.2814C10.2679 13.8841 10.2921 14.452 10.2949 15.0799C10.2948 15.2178 10.2948 15.3557 10.2948 15.4977C10.2949 15.9445 10.2961 16.3912 10.2973 16.8379C10.2976 17.1135 10.2977 17.3892 10.2978 17.6648C10.2986 18.6874 10.3008 19.71 10.3028 20.7325C10.3061 23.0174 10.3093 25.3023 10.3126 27.6564C16.8095 27.6564 23.3064 27.6564 30.0001 27.6564C30.0517 26.8314 30.1032 26.0064 30.1564 25.1564C30.4 24.9128 30.6347 24.9802 30.9733 24.9799C31.1837 24.9792 31.1837 24.9792 31.3983 24.9784C31.5508 24.9787 31.7033 24.979 31.8605 24.9794C32.0159 24.9792 32.1714 24.9791 32.3316 24.9789C32.661 24.9788 32.9904 24.9791 33.3199 24.9797C33.826 24.9806 34.3322 24.9797 34.8384 24.9787C35.1576 24.9788 35.4768 24.979 35.796 24.9794C35.9485 24.979 36.101 24.9787 36.2581 24.9784C36.3984 24.9789 36.5386 24.9794 36.6831 24.9799C36.8072 24.98 36.9313 24.9801 37.0592 24.9803C37.3439 25.0001 37.3439 25.0001 37.5001 25.1564C37.5517 25.9814 37.6032 26.8064 37.6564 27.6564C44.1532 27.6564 50.6501 27.6564 57.3438 27.6564C57.3567 25.3812 57.3696 23.106 57.3829 20.7618C57.3886 20.0444 57.3943 19.3269 57.4002 18.5877C57.4022 17.9426 57.4022 17.9426 57.4035 17.2975C57.4045 17.0109 57.4067 16.7244 57.4098 16.4378C57.4144 16.0029 57.415 15.5681 57.4148 15.1331C57.4182 14.9427 57.4182 14.9427 57.4216 14.7485C57.4156 13.9292 57.2744 13.4534 56.7188 12.8126C55.9629 12.1718 55.1092 12.2785 54.1702 12.2843C53.8992 12.2832 53.8992 12.2832 53.6227 12.2821C53.1217 12.2806 52.6209 12.2811 52.12 12.2826C51.5796 12.2836 51.0391 12.282 50.4987 12.2807C49.4402 12.2786 48.3818 12.2791 47.3233 12.2804C46.4631 12.2815 45.6029 12.2816 44.7427 12.2811C44.5591 12.281 44.5591 12.281 44.3718 12.2809C44.1232 12.2808 43.8746 12.2806 43.6259 12.2805C41.2941 12.2791 38.9623 12.2807 36.6305 12.2832C34.6294 12.2853 32.6283 12.2849 30.6272 12.2827C28.3037 12.2802 25.9803 12.2793 23.6569 12.2807C23.4092 12.2808 23.1614 12.281 22.9137 12.2811C22.7309 12.2812 22.7309 12.2812 22.5444 12.2814C21.6852 12.2818 20.8259 12.2811 19.9667 12.28C18.9197 12.2787 17.8727 12.279 16.8257 12.2815C16.2914 12.2827 15.7572 12.2832 15.2229 12.2817C14.644 12.2804 14.0652 12.282 13.4863 12.2843C13.317 12.2833 13.1478 12.2822 12.9734 12.2812C11.9054 12.2896 11.1819 12.4257 10.4689 13.2814ZM31.4064 26.2501C31.4064 27.8485 31.4064 29.447 31.4064 31.0939C33.0048 31.0939 34.6032 31.0939 36.2501 31.0939C36.2501 29.4954 36.2501 27.897 36.2501 26.2501C34.6517 26.2501 33.0532 26.2501 31.4064 26.2501ZM10.3126 29.0626C10.3029 31.3636 10.2933 33.6646 10.2833 36.0353C10.279 36.7609 10.2748 37.4865 10.2704 38.2341C10.2688 38.8865 10.2688 38.8865 10.2679 39.5389C10.2671 39.8287 10.2655 40.1185 10.2631 40.4083C10.2597 40.8482 10.2592 41.2879 10.2594 41.7278C10.2577 41.8562 10.256 41.9845 10.2543 42.1168C10.2584 42.8819 10.365 43.3962 10.7814 44.0626C11.5742 44.829 12.6137 44.7098 13.6459 44.7064C13.7933 44.7065 13.9407 44.7067 14.0926 44.7068C14.5868 44.7071 15.081 44.7062 15.5752 44.7053C15.9294 44.7053 16.2836 44.7053 16.6378 44.7054C17.5997 44.7055 18.5617 44.7045 19.5236 44.7034C20.5288 44.7025 21.5339 44.7024 22.5391 44.7022C24.2263 44.7018 25.9135 44.7008 27.6007 44.6994C29.3384 44.698 31.0761 44.6969 32.8139 44.6962C32.9746 44.6961 32.9746 44.6961 33.1385 44.6961C33.676 44.6959 34.2135 44.6957 34.751 44.6955C39.209 44.6939 43.6671 44.6911 48.1251 44.6876C48.0392 44.198 48.0392 44.198 47.6966 43.8581C47.5867 43.7999 47.4767 43.7417 47.3634 43.6818C46.7901 43.3782 46.5271 43.0917 46.2501 42.5001C46.12 41.6294 46.1335 40.8625 46.5235 40.0685C46.8751 39.6876 46.8751 39.6876 47.2047 39.499C47.5513 39.2281 47.5513 39.2281 47.5733 38.7196C47.575 38.517 47.5766 38.3143 47.5782 38.1056C47.6597 35.6135 48.259 33.237 50.0062 31.3716C52.0962 29.4772 54.6784 29.4167 57.3438 29.3751C57.3438 29.272 57.3438 29.1689 57.3438 29.0626C50.847 29.0626 44.3501 29.0626 37.6564 29.0626C37.6048 30.1454 37.5532 31.2282 37.5001 32.3439C37.1413 32.5233 36.9392 32.5199 36.5403 32.5203C36.4068 32.5208 36.2734 32.5213 36.1358 32.5218C35.9915 32.5215 35.8471 32.5212 35.6983 32.5209C35.5504 32.521 35.4025 32.5212 35.25 32.5213C34.9369 32.5214 34.6238 32.5211 34.3106 32.5205C33.8302 32.5196 33.3498 32.5205 32.8694 32.5215C32.5656 32.5214 32.2619 32.5212 31.9581 32.5209C31.7416 32.5213 31.7416 32.5213 31.5206 32.5218C31.3871 32.5213 31.2537 32.5208 31.1161 32.5203C30.9984 32.5202 30.8807 32.5201 30.7594 32.52C30.4689 32.5001 30.4689 32.5001 30.1564 32.3439C30.079 30.7196 30.079 30.7196 30.0001 29.0626C23.5032 29.0626 17.0064 29.0626 10.3126 29.0626ZM51.0938 32.3439C50.9978 32.4337 50.9017 32.5235 50.8027 32.6161C49.3128 34.1538 48.8936 36.2367 48.8868 38.3107C48.8918 38.6134 48.8977 38.9162 48.9063 39.2189C52.6986 39.7414 56.6213 38.2919 59.7236 36.1573C60.1563 35.9376 60.1563 35.9376 60.5805 35.9455C61.0117 36.1246 61.1004 36.2589 61.3087 36.67C61.9985 37.8675 62.9524 38.4181 64.2188 38.9064C64.6716 37.2651 64.8885 35.9849 64.2188 34.3751C63.1416 32.479 61.2525 31.6937 59.2357 31.1296C56.5411 30.4375 53.2395 30.3071 51.0938 32.3439ZM59.4508 37.9597C58.1101 38.7065 56.7808 39.3588 55.3224 39.8439C55.1288 39.909 55.1288 39.909 54.9313 39.9754C53.0501 40.5737 51.2673 40.6593 49.307 40.5992C49.0576 40.5948 49.0576 40.5948 48.8032 40.5903C48.5793 40.5837 48.5793 40.5837 48.3509 40.5769C47.9626 40.5944 47.9626 40.5944 47.6866 40.833C47.3927 41.2441 47.4301 41.541 47.5001 42.0314C47.8325 42.4916 48.0309 42.6358 48.5884 42.7577C49.0626 42.9689 49.0626 42.9689 49.3208 43.4803C49.3907 43.693 49.4575 43.9067 49.5216 44.1212C50.2577 46.2944 51.324 48.1478 53.3888 49.2872C55.0036 50.0238 56.7319 50.2043 58.4376 49.6876C60.5613 48.8252 62.0274 47.4097 62.9438 45.3114C63.2361 44.5999 63.5033 43.879 63.7361 43.1459C63.9063 42.8126 63.9063 42.8126 64.1993 42.6844C64.3637 42.6609 64.3637 42.6609 64.5313 42.6368C64.8601 42.5951 64.8601 42.5951 65.1563 42.5001C65.52 41.9546 65.5474 41.7357 65.4688 41.0939C65.0097 40.5133 64.5935 40.3547 63.8868 40.1759C62.3914 39.7434 61.3292 39.1198 60.3559 37.8968C60.2901 37.8175 60.2242 37.7381 60.1563 37.6564C59.8873 37.6564 59.6808 37.8287 59.4508 37.9597Z" fill="#18315C"/>
<path d="M19.2675 49.2977C19.4612 49.2976 19.655 49.2975 19.8546 49.2974C20.0573 49.3005 20.2599 49.3036 20.4687 49.3068C20.6713 49.3057 20.8739 49.3046 21.0827 49.3035C22.5716 49.3135 22.5716 49.3135 22.9429 49.5842C23.2213 49.9815 23.2882 50.388 23.3886 50.8596C23.4278 51.0384 23.4671 51.2173 23.5076 51.4016C23.5937 51.8752 23.5937 51.8752 23.5937 52.3439C23.6897 52.376 23.7858 52.408 23.8848 52.441C24.4127 52.617 24.9407 52.7929 25.4687 52.9689C25.9543 52.6725 26.4009 52.3359 26.8584 51.9979C27.4128 51.6792 27.6529 51.6465 28.2812 51.7189C28.8683 52.1156 29.3392 52.6392 29.8339 53.1447C29.9726 53.2785 30.1112 53.4122 30.2541 53.55C30.3843 53.6809 30.5145 53.8118 30.6487 53.9467C30.7679 54.0662 30.8872 54.1856 31.01 54.3087C31.2499 54.6877 31.2499 54.6877 31.2263 55.1766C31.0718 55.6989 30.8375 56.0238 30.5077 56.4553C30.0914 57.0529 30.0914 57.0529 30.0268 57.751C30.149 58.1046 30.2928 58.4205 30.4687 58.7502C30.5202 58.9049 30.5718 59.0596 30.6249 59.2189C31.0713 59.3527 31.498 59.4591 31.953 59.551C33.2661 59.8288 33.2661 59.8288 33.4374 60.0002C33.4511 60.3582 33.4541 60.7167 33.4527 61.075C33.4523 61.2359 33.4523 61.2359 33.452 61.4001C33.4511 61.744 33.4492 62.0879 33.4472 62.4318C33.4464 62.6645 33.4457 62.8971 33.445 63.1298C33.4433 63.7012 33.4406 64.2725 33.4374 64.8439C32.7171 65.0987 32.0443 65.3339 31.2792 65.4006C30.8065 65.4968 30.6679 65.5639 30.3869 65.9645C30.0317 66.7486 30.0317 66.7486 30.1122 67.5801C30.3937 68.1268 30.7301 68.6298 31.0711 69.1408C31.2943 69.6285 31.2505 69.8055 31.0937 70.3127C30.6929 70.8451 30.2088 71.2989 29.7362 71.7678C29.6106 71.8984 29.4851 72.029 29.3557 72.1636C29.2325 72.2869 29.1093 72.4103 28.9824 72.5374C28.8705 72.6503 28.7586 72.7631 28.6433 72.8794C28.1764 73.1963 27.8974 73.1927 27.3437 73.1252C26.8969 72.8298 26.8969 72.8298 26.4452 72.4611C25.7904 71.9693 25.7904 71.9693 25.0109 71.9313C24.6216 72.0961 24.2697 72.2858 23.9062 72.5002C23.803 72.5002 23.6999 72.5002 23.5937 72.5002C23.5747 72.6265 23.5558 72.7528 23.5363 72.8829C23.5101 73.0498 23.4839 73.2168 23.4569 73.3889C23.4316 73.5538 23.4062 73.7188 23.38 73.8887C23.2503 74.5272 23.1212 75.0039 22.6562 75.4689C21.9331 75.5453 21.2051 75.5268 20.4784 75.5275C20.2751 75.5314 20.0718 75.5352 19.8623 75.5391C19.6678 75.5397 19.4733 75.5403 19.273 75.541C19.0941 75.5422 18.9153 75.5435 18.731 75.5448C18.2812 75.4689 18.2812 75.4689 17.9941 75.1878C17.7327 74.6931 17.6431 74.1785 17.5487 73.633C17.5285 73.524 17.5082 73.4151 17.4874 73.3028C17.438 73.0355 17.3906 72.7679 17.3437 72.5002C17.1995 72.4521 17.1995 72.4521 17.0525 72.4031C16.2606 72.1392 16.2606 72.1392 15.4687 71.8752C14.983 72.1716 14.5364 72.5082 14.0789 72.8463C13.5257 73.1642 13.2829 73.1956 12.6562 73.1252C12.294 72.8794 12.294 72.8794 11.9549 72.5374C11.8317 72.414 11.7085 72.2907 11.5816 72.1636C11.456 72.033 11.3305 71.9023 11.2011 71.7678C11.0082 71.5764 11.0082 71.5764 10.8114 71.3811C9.73461 70.2848 9.73461 70.2848 9.6874 69.5314C9.89063 69.1828 10.0939 68.8771 10.3319 68.5549C10.8036 67.8748 10.8036 67.8748 10.9221 67.0717C10.7983 66.7205 10.6536 66.4164 10.4687 66.0939C10.4171 65.9392 10.3655 65.7846 10.3124 65.6252C9.89538 65.4954 9.49784 65.3923 9.07217 65.3029C7.85094 65.0387 7.85094 65.0387 7.4999 64.6877C7.43055 64.0445 7.43519 63.4005 7.43341 62.7539C7.43155 62.4334 7.42387 62.1135 7.41598 61.7931C7.41487 61.5916 7.41376 61.3901 7.41262 61.1824C7.41052 60.997 7.40842 60.8117 7.40625 60.6206C7.4999 60.1564 7.4999 60.1564 7.86481 59.8638C8.34719 59.6598 8.78838 59.5931 9.30654 59.5217C10.0544 59.3704 10.0544 59.3704 10.5944 58.8692C10.8447 58.2866 11.0052 57.8879 10.8227 57.2646C10.5442 56.7163 10.2072 56.2143 9.86623 55.7033C9.64298 55.2156 9.68676 55.0386 9.84365 54.5314C10.2444 53.999 10.7285 53.5453 11.2011 53.0764C11.3267 52.9457 11.4522 52.8151 11.5816 52.6805C11.7048 52.5572 11.828 52.4338 11.9549 52.3067C12.1227 52.1374 12.1227 52.1374 12.294 51.9647C12.7609 51.6479 13.0399 51.6514 13.5937 51.7189C14.0404 52.0143 14.0404 52.0143 14.4921 52.383C15.1469 52.8748 15.1469 52.8748 15.9264 52.9128C16.3157 52.748 16.6676 52.5583 17.0312 52.3439C17.1343 52.3439 17.2374 52.3439 17.3437 52.3439C17.3721 52.182 17.4004 52.0201 17.4297 51.8532C17.4693 51.6392 17.509 51.4251 17.5487 51.2111C17.5672 51.1046 17.5856 50.998 17.6046 50.8882C17.8224 49.7377 18.0584 49.2957 19.2675 49.2977ZM19.2187 50.7814C19.1894 50.9623 19.1602 51.1432 19.1301 51.3295C18.7623 53.16 18.7623 53.16 18.1855 53.653C17.5285 54.0268 16.8278 54.2136 16.0937 54.3752C15.9327 54.4189 15.7718 54.4626 15.606 54.5076C14.9984 54.5398 14.7597 54.3329 14.2772 53.9748C13.8601 53.6489 13.8601 53.6489 13.4374 53.4377C12.851 53.5803 12.4809 54.0501 12.0702 54.4728C11.8829 54.6644 11.8829 54.6644 11.6918 54.8598C11.5975 54.9577 11.5033 55.0556 11.4062 55.1564C11.5246 55.3431 11.5246 55.3431 11.6454 55.5336C11.7469 55.6992 11.8484 55.8648 11.953 56.0353C12.0545 56.1985 12.1561 56.3616 12.2606 56.5297C12.5224 57.0786 12.5745 57.3699 12.4999 57.9689C12.34 58.409 12.34 58.409 12.1288 58.8381C11.8249 59.4559 11.8249 59.4559 11.6161 60.1088C11.4062 60.4689 11.4062 60.4689 10.8288 60.6819C10.5989 60.7354 10.368 60.784 10.1366 60.8303C9.73056 60.9173 9.32451 61.0043 8.90615 61.0939C8.90615 61.9705 8.90615 62.8471 8.90615 63.7502C9.30254 63.8146 9.69892 63.8791 10.1073 63.9455C10.8273 64.0961 11.2815 64.2096 11.7351 64.8122C11.9239 65.2884 12.062 65.7541 12.1874 66.2502C12.2442 66.3533 12.301 66.4564 12.3595 66.5627C12.5608 67.0107 12.5531 67.3252 12.4999 67.8127C12.1849 68.4733 11.7938 69.0647 11.4062 69.6877C11.9733 70.2549 12.5405 70.8221 13.1249 71.4064C13.704 71.1748 14.0338 71.02 14.5116 70.674C14.977 70.3795 15.1312 70.3131 15.703 70.3029C16.2353 70.4645 16.689 70.6629 17.1734 70.9322C17.5131 71.1186 17.5131 71.1186 17.979 71.1861C18.4374 71.4064 18.4374 71.4064 18.5856 71.68C18.7057 72.0354 18.8001 72.3891 18.8866 72.7541C18.9197 72.8794 18.9527 73.0047 18.9867 73.1337C19.0676 73.4425 19.1436 73.7525 19.2187 74.0627C20.0437 74.0627 20.8687 74.0627 21.7187 74.0627C21.7479 73.8818 21.7771 73.7009 21.8072 73.5146C22.1793 71.6674 22.1793 71.6674 22.7644 71.1911C23.4219 70.8354 24.1225 70.6519 24.8437 70.4689C24.8952 70.4174 24.9468 70.3658 24.9999 70.3127C26.1439 70.3127 26.8867 70.9341 27.8124 71.5627C28.6632 70.7119 28.6632 70.7119 29.5312 69.8439C29.3041 69.2764 29.1423 68.9247 28.8085 68.4474C28.4564 67.8884 28.3114 67.547 28.4374 66.8752C28.5755 66.5548 28.7293 66.2544 28.9019 65.9511C29.0772 65.6339 29.0772 65.6339 29.1204 65.2895C29.1945 64.8786 29.2484 64.6892 29.5312 64.3752C30.3709 64.0635 31.1378 63.9217 32.0312 63.7502C32.0312 62.8736 32.0312 61.9971 32.0312 61.0939C31.638 61.0391 31.2448 60.9844 30.8397 60.9279C30.247 60.8122 29.7155 60.6969 29.3232 60.2118C28.9691 59.5517 28.7825 58.8466 28.5937 58.1252C28.5421 58.0736 28.4905 58.0221 28.4374 57.9689C28.3543 57.1728 28.5385 56.7662 28.9843 56.1135C29.0858 55.9624 29.1873 55.8113 29.2919 55.6557C29.4103 55.4859 29.4103 55.4859 29.5312 55.3127C28.9744 54.517 28.43 53.871 27.6562 53.2814C27.5317 53.3735 27.4072 53.4655 27.279 53.5604C27.1134 53.6778 26.9478 53.7952 26.7772 53.9162C26.6141 54.034 26.451 54.1519 26.2829 54.2733C25.6859 54.5804 25.4769 54.5664 24.8437 54.3752C24.5179 54.2539 24.1955 54.1235 23.8769 53.9846C23.419 53.7865 22.9732 53.5955 22.4999 53.4377C22.375 53.1761 22.375 53.1761 22.2832 52.8414C22.2495 52.722 22.2158 52.6027 22.181 52.4797C22.1477 52.3544 22.1143 52.229 22.08 52.0998C22.0273 51.9108 22.0273 51.9108 21.9735 51.718C21.8868 51.4063 21.8025 51.0939 21.7187 50.7814C20.8937 50.7814 20.0687 50.7814 19.2187 50.7814Z" fill="#18315C"/>
<path d="M46.6222 51.8377C46.8117 51.8358 46.8117 51.8358 47.005 51.8339C47.2714 51.8317 47.5379 51.83 47.8044 51.8288C48.0773 51.827 48.3503 51.8238 48.6232 51.8192C49.0174 51.8126 49.4115 51.81 49.8058 51.8084C49.9279 51.8057 50.0499 51.8029 50.1757 51.8001C51.0207 51.8035 51.0207 51.8035 51.3987 52.1706C51.5666 52.5072 51.734 52.8435 51.895 53.1835C52.5571 54.3924 53.7322 54.9108 55.0005 55.3124C56.4503 55.7111 58.0128 55.4519 59.3413 54.7802C60.3466 54.1383 60.8655 53.3895 61.4067 52.3437C61.5098 52.189 61.613 52.0343 61.7192 51.8749C62.141 51.8253 62.5261 51.8055 62.9485 51.8072C63.1336 51.8059 63.1336 51.8059 63.3225 51.8047C63.5849 51.8037 63.8474 51.8039 64.1098 51.8052C64.5053 51.8065 64.9004 51.8021 65.2959 51.7971C67.4133 51.7877 69.2016 52.0592 70.7817 53.5937C72.3267 55.2153 72.5974 56.9189 72.578 59.0972C72.578 59.3217 72.5782 59.5462 72.5787 59.7707C72.5789 60.2373 72.577 60.7038 72.5734 61.1704C72.5689 61.7689 72.5694 62.3672 72.5714 62.9657C72.5724 63.4275 72.5712 63.8892 72.5693 64.351C72.5686 64.5718 72.5685 64.7927 72.5691 65.0135C72.5696 65.3205 72.5667 65.6275 72.5636 65.9344C72.5628 66.109 72.5619 66.2835 72.5611 66.4633C72.5411 66.5992 72.5211 66.735 72.5005 66.8749C71.9183 67.2631 71.4717 67.2306 70.7981 67.2261C70.671 67.2264 70.544 67.2268 70.4131 67.2272C69.9859 67.2281 69.5588 67.2267 69.1316 67.2254C68.826 67.2255 68.5203 67.2259 68.2147 67.2263C67.3834 67.227 66.5522 67.2258 65.7209 67.2243C64.8522 67.2229 63.9834 67.2232 63.1147 67.2232C61.6556 67.2231 60.1965 67.2217 58.7374 67.2196C57.049 67.2171 55.3606 67.2163 53.6722 67.2164C52.05 67.2165 50.4277 67.2157 48.8055 67.2144C48.1142 67.2139 47.4229 67.2136 46.7316 67.2135C45.918 67.2133 45.1044 67.2124 44.2908 67.2108C43.9917 67.2104 43.6926 67.2102 43.3934 67.2103C42.9862 67.2103 42.5789 67.2095 42.1716 67.2083C42.0523 67.2086 41.933 67.2088 41.8101 67.2091C41.3206 67.2068 40.9373 67.1872 40.4692 67.0312C40.2599 66.6124 40.2908 66.2876 40.2878 65.8187C40.2863 65.6298 40.2848 65.4409 40.2832 65.2463C40.2826 65.0409 40.2819 64.8356 40.2812 64.6239C40.2803 64.4109 40.2794 64.1979 40.2785 63.9849C40.2769 63.5373 40.276 63.0896 40.2754 62.642C40.2746 62.0722 40.2708 61.5024 40.2664 60.9326C40.2634 60.4918 40.2627 60.0511 40.2624 59.6103C40.2617 59.2992 40.2588 58.9882 40.2559 58.6772C40.2606 56.7285 40.6792 55.0785 41.9975 53.5925C43.3066 52.3532 44.8572 51.8544 46.6222 51.8377ZM42.8563 54.9712C41.7657 56.2976 41.6498 57.7683 41.6734 59.4299C41.6741 59.608 41.6748 59.7861 41.6755 59.9697C41.6781 60.5332 41.6839 61.0966 41.6899 61.6601C41.6923 62.0444 41.6944 62.4287 41.6963 62.813C41.7011 63.7504 41.7103 64.6876 41.7192 65.6249C43.3177 65.6249 44.9161 65.6249 46.563 65.6249C46.6082 64.4493 46.6082 64.4493 46.6517 63.2736C46.6577 63.128 46.6637 62.9825 46.6698 62.8326C46.6755 62.6828 46.6812 62.5331 46.6871 62.3788C46.7192 62.0312 46.7192 62.0312 46.8755 61.8749C47.2661 61.8554 47.2661 61.8554 47.6567 61.8749C48.5437 62.7619 47.9147 64.3718 47.9692 65.6249C53.538 65.6249 59.1067 65.6249 64.8442 65.6249C64.8958 64.439 64.9473 63.253 65.0005 62.0312C65.052 61.9796 65.1036 61.9281 65.1567 61.8749C65.4661 61.8749 65.7755 61.8749 66.0942 61.8749C66.1458 63.1124 66.1973 64.3499 66.2505 65.6249C67.8489 65.6249 69.4473 65.6249 71.0942 65.6249C71.105 64.4712 71.1143 63.3177 71.12 62.164C71.1223 61.772 71.1255 61.3799 71.1296 60.9879C71.1353 60.4228 71.1379 59.8577 71.14 59.2925C71.1424 59.1186 71.1448 58.9448 71.1473 58.7656C71.1477 57.1828 70.8428 55.9101 69.7429 54.7216C68.3351 53.3655 66.6847 53.1652 64.7954 53.1542C64.6023 53.1453 64.4093 53.1363 64.2104 53.1271C63.1862 53.0917 63.1862 53.0917 62.3374 53.5799C62.102 53.9394 61.9096 54.3027 61.7192 54.6874C60.6671 55.8976 59.2431 56.6374 57.6567 56.8749C55.3479 57.0307 53.3694 56.7171 51.563 55.1562C51.0997 54.6958 50.7155 54.2534 50.436 53.6603C50.191 53.2416 50.191 53.2416 49.741 53.185C49.4945 53.1867 49.4945 53.1867 49.243 53.1884C49.0613 53.1888 48.8795 53.1892 48.6922 53.1896C48.5019 53.1941 48.3117 53.1985 48.1157 53.2031C47.9297 53.2026 47.7437 53.2022 47.552 53.2018C45.6557 53.2227 44.1865 53.5687 42.8563 54.9712Z" fill="#18315C"/>
<path d="M24.4783 57.6818C25.7259 58.8394 26.4776 60.1591 26.5944 61.8719C26.6251 63.9766 26.0721 65.4376 24.6486 66.9921C23.2571 68.3247 21.6255 68.5259 19.7853 68.4893C18.0423 68.4031 16.778 67.5066 15.6251 66.2499C14.6452 65.0603 14.2707 63.539 14.3208 62.0147C14.5564 60.0535 15.3666 58.6698 16.8666 57.4273C19.125 55.7399 22.3156 55.9225 24.4783 57.6818ZM17.0314 59.2187C16.1854 60.3411 15.7319 61.4831 15.8009 62.9009C15.9948 64.1914 16.6121 65.3451 17.6369 66.162C18.8451 66.9668 19.9532 67.198 21.4064 67.0312C22.7392 66.6956 23.7359 65.9991 24.5021 64.8632C25.188 63.6786 25.3219 62.4392 24.9904 61.1132C24.5287 59.7068 23.6639 58.8585 22.3958 58.1396C20.5949 57.2949 18.3818 57.8068 17.0314 59.2187Z" fill="#18315C"/>
<path d="M13.1255 34.375C13.5942 34.3164 13.5942 34.3164 14.063 34.375C14.4626 34.9745 14.415 35.4602 14.406 36.1542C14.4055 36.2818 14.4051 36.4095 14.4046 36.541C14.4029 36.9486 14.399 37.3561 14.395 37.7637C14.3934 38.0401 14.392 38.3164 14.3907 38.5928C14.3873 39.2702 14.3819 39.9476 14.3755 40.625C14.67 40.6225 14.67 40.6225 14.9704 40.62C15.6981 40.6144 16.4258 40.6108 17.1535 40.6078C17.4686 40.6063 17.7837 40.6041 18.0988 40.6014C18.5514 40.5976 19.004 40.5959 19.4566 40.5945C19.5978 40.5929 19.7389 40.5913 19.8843 40.5896C20.0156 40.5896 20.147 40.5895 20.2823 40.5895C20.3979 40.5888 20.5134 40.5881 20.6324 40.5874C20.938 40.625 20.938 40.625 21.4067 40.9375C21.4555 41.3281 21.4555 41.3281 21.4067 41.7188C21.0124 42.1131 20.878 42.0714 20.3322 42.0742C20.0944 42.0764 20.0944 42.0764 19.8519 42.0787C19.6801 42.0785 19.5084 42.0784 19.3315 42.0782C19.1558 42.0789 18.9801 42.0796 18.7991 42.0803C18.4271 42.0812 18.0552 42.0813 17.6832 42.0806C17.1122 42.0801 16.5413 42.0837 15.9703 42.0877C15.6096 42.0881 15.2489 42.0882 14.8881 42.088C14.7164 42.0895 14.5447 42.0909 14.3678 42.0924C14.13 42.0909 14.13 42.0909 13.8875 42.0894C13.7475 42.0895 13.6076 42.0896 13.4635 42.0897C13.3519 42.0704 13.2404 42.0511 13.1255 42.0312C12.8036 41.5484 12.7737 41.446 12.7725 40.9C12.7715 40.767 12.7705 40.634 12.7695 40.497C12.7702 40.354 12.7708 40.2109 12.7714 40.0635C12.7711 39.9161 12.7709 39.7688 12.7705 39.6169C12.7703 39.3054 12.7709 38.9939 12.7722 38.6823C12.7739 38.205 12.7722 37.7277 12.7702 37.2504C12.7704 36.9478 12.7708 36.6453 12.7714 36.3428C12.7708 36.1997 12.7702 36.0566 12.7695 35.9092C12.7705 35.7762 12.7715 35.6433 12.7725 35.5063C12.7728 35.3894 12.773 35.2725 12.7733 35.152C12.813 34.8438 12.813 34.8438 13.1255 34.375Z" fill="#18315C"/>
</svg>
