<svg width="80" height="80" viewBox="0 0 80 80" fill="none" xmlns="http://www.w3.org/2000/svg">
<path d="M41.6529 8.52205C41.7972 8.56446 41.9416 8.60687 42.0903 8.65057C42.576 8.79346 43.0613 8.93733 43.5467 9.08121C43.8961 9.18426 44.2455 9.28727 44.595 9.39022C45.5672 9.67686 46.5392 9.96456 47.5111 10.2525C48.161 10.445 48.8111 10.6373 49.4611 10.8295C51.9086 11.5535 54.3557 12.2786 56.8026 13.0048C58.3791 13.4727 59.9561 13.9393 61.5334 14.4048C62.1489 14.5865 62.7643 14.7684 63.3797 14.9504C63.86 15.0924 64.3404 15.2343 64.8208 15.3757C65.344 15.5296 65.867 15.6844 66.3899 15.8392C66.5433 15.8842 66.6967 15.9291 66.8547 15.9755C67.0645 16.0378 67.0645 16.0378 67.2785 16.1013C67.3993 16.137 67.5202 16.1726 67.6446 16.2093C67.9568 16.3149 68.2333 16.4209 68.5149 16.5922C68.7639 17.1554 68.8412 17.7045 68.9 18.314C68.917 18.4871 68.9339 18.6603 68.9514 18.8387C68.9683 19.0241 68.9852 19.2095 69.002 19.3949C69.0108 19.4895 69.0196 19.584 69.0287 19.6814C69.1827 21.3389 69.2984 22.9941 69.3353 24.6586C69.3383 24.7803 69.3413 24.902 69.3443 25.0274C69.4934 32.0395 68.5944 39.1614 66.4642 45.85C66.4247 45.9745 66.3853 46.0991 66.3447 46.2274C64.7643 51.1428 62.3347 55.7833 59.0814 59.7953C58.9267 59.9917 58.9267 59.9917 58.7689 60.1921C57.0667 62.2882 55.0775 64.3392 52.8831 65.9194C52.6377 66.0973 52.3967 66.2803 52.1557 66.4641C51.0782 67.2798 49.9682 68.0048 48.7967 68.6776C48.5721 68.8082 48.3506 68.9441 48.1294 69.0804C46.0315 70.347 43.714 71.3097 41.4104 72.1342C41.2484 72.1932 41.2484 72.1932 41.083 72.2533C39.8661 72.6702 38.9789 72.4674 37.7959 72.0402C37.6573 71.9908 37.5187 71.9414 37.3759 71.8905C33.2551 70.3938 29.4091 68.2886 25.9954 65.5375C25.8639 65.4341 25.7325 65.3306 25.597 65.224C23.5007 63.5204 21.45 61.5316 19.8695 59.3362C19.6974 59.0994 19.5199 58.8676 19.3411 58.6359C13.0966 50.4652 10.6429 40.0019 10.1019 29.9052C10.0962 29.8006 10.0906 29.696 10.0848 29.5883C9.90863 26.2168 10.0145 22.8488 10.3326 19.4889C10.341 19.3974 10.3494 19.3059 10.358 19.2116C10.3824 18.9499 10.4084 18.6883 10.4346 18.4267C10.4495 18.2769 10.4643 18.1271 10.4797 17.9728C10.6508 16.8828 10.6508 16.8828 11.052 16.5171C11.423 16.2831 11.7671 16.1698 12.1881 16.046C12.3566 15.9958 12.5251 15.9457 12.6987 15.894C12.8852 15.8397 13.0717 15.7855 13.2581 15.7313C13.4549 15.6732 13.6517 15.615 13.8484 15.5566C14.384 15.3982 14.9199 15.2412 15.4559 15.0844C16.0229 14.9183 16.5895 14.7509 17.1561 14.5836C18.1114 14.3017 19.067 14.0206 20.0227 13.7401C21.4495 13.3212 22.8757 12.9008 24.3019 12.4799C24.7627 12.344 25.2234 12.2081 25.6842 12.0722C25.7971 12.0388 25.91 12.0055 26.0264 11.9712C26.8158 11.7383 27.6051 11.5056 28.3946 11.273C31.9833 10.2156 31.9833 10.2156 35.5705 9.15287C35.8425 9.07207 36.1147 8.99138 36.3868 8.91081C36.75 8.80326 37.113 8.6953 37.476 8.5872C37.6307 8.54151 37.6307 8.54151 37.7886 8.4949C38.1801 8.37786 38.5543 8.26149 38.9241 8.08616C39.7887 7.80772 40.8122 8.27167 41.6529 8.52205ZM40.6243 10.4398C40.6235 10.528 40.6227 10.6162 40.6219 10.707C40.6132 11.623 40.6016 12.5389 40.5884 13.4548C40.5839 13.7968 40.5801 14.1388 40.577 14.4808C40.5724 14.9719 40.5652 15.4629 40.5576 15.954C40.5567 16.1074 40.5558 16.2608 40.5549 16.4188C40.5509 16.6323 40.5509 16.6323 40.5467 16.85C40.5444 17.0381 40.5444 17.0381 40.5421 17.23C40.4775 17.6086 40.3828 17.7327 40.0774 17.9594C39.7682 17.9994 39.7682 17.9994 39.4366 17.985C39.2708 17.9795 39.2708 17.9795 39.1017 17.9738C39.0177 17.969 38.9336 17.9643 38.847 17.9594C38.7257 17.5399 38.6899 17.1589 38.6822 16.7229C38.6795 16.5861 38.6767 16.4493 38.6739 16.3083C38.6705 16.0882 38.6705 16.0882 38.667 15.8637C38.6642 15.7128 38.6613 15.5618 38.6584 15.4063C38.6495 14.9243 38.6414 14.4423 38.6334 13.9604C38.6274 13.6335 38.6215 13.3067 38.6155 12.9798C38.6008 12.1788 38.5869 11.3777 38.5735 10.5766C37.892 10.6596 37.2522 10.8005 36.5944 10.9987C36.4959 11.0278 36.3975 11.0568 36.2962 11.0867C35.9686 11.1836 35.6414 11.2814 35.3142 11.3793C35.0785 11.4492 34.8429 11.519 34.6072 11.5888C34.1008 11.7388 33.5945 11.8893 33.0883 12.0402C32.2876 12.2787 31.4866 12.5164 30.6855 12.7539C29.7059 13.0445 28.7262 13.3352 27.7467 13.6263C25.0572 14.4253 22.3665 15.22 19.6757 16.0146C19.0141 16.21 18.3526 16.4055 17.6912 16.601C17.1958 16.7475 16.7004 16.8939 16.205 17.0403C15.9757 17.1081 15.7464 17.1759 15.5171 17.2437C15.2034 17.3364 14.8898 17.4291 14.5762 17.5217C14.4409 17.5617 14.4409 17.5617 14.3029 17.6026C13.7351 17.7702 13.1664 17.9342 12.597 18.0961C12.5536 18.4008 12.511 18.7056 12.4688 19.0104C12.445 19.1801 12.4212 19.3498 12.3967 19.5247C12.2187 20.9462 12.1644 22.3668 12.159 23.7982C12.1581 23.9721 12.1571 24.1459 12.1561 24.325C12.1535 24.8834 12.1527 25.4418 12.1526 26.0002C12.1526 26.0954 12.1526 26.1906 12.1525 26.2887C12.1523 29.1387 12.1864 31.9498 12.597 34.7758C12.6252 34.9774 12.6534 35.1789 12.6815 35.3805C13.4368 40.7277 14.7125 46.0421 17.1087 50.9086C17.1993 51.0983 17.2897 51.2881 17.38 51.4779C19.0616 54.9707 21.2724 58.0834 23.9446 60.8891C24.0226 60.971 24.1006 61.0528 24.1809 61.1372C25.3468 62.3527 26.552 63.447 27.9095 64.4438C27.989 64.5028 28.0684 64.5617 28.1503 64.6225C29.2637 65.4465 30.4083 66.1989 31.6009 66.9047C31.819 67.0371 31.819 67.0371 32.0415 67.1723C33.3936 67.974 34.8024 68.6176 36.2493 69.2289C36.3876 69.2886 36.5258 69.3483 36.6682 69.4098C37.0991 69.5939 37.5324 69.7711 37.9668 69.9467C38.1667 70.0327 38.1667 70.0327 38.3705 70.1205C39.3891 70.5186 40.0278 70.4447 41.0345 70.0492C41.1633 70.0009 41.2921 69.9526 41.4248 69.9028C41.8307 69.7452 42.2317 69.5787 42.6324 69.4084C42.8473 69.3177 42.8473 69.3177 43.0666 69.2252C44.238 68.7258 45.3803 68.1884 46.5032 67.5883C46.5911 67.542 46.6791 67.4958 46.7697 67.4482C49.1901 66.1686 51.3889 64.5497 53.4081 62.7038C53.632 62.4999 53.858 62.2982 54.0863 62.0992C61.8998 55.2609 65.3311 44.5942 66.7376 34.6391C66.7747 34.3796 66.7747 34.3796 66.8125 34.115C67.1686 31.4708 67.1858 28.8209 67.19 26.1574C67.1905 25.8854 67.1913 25.6134 67.192 25.3414C67.3315 21.6744 67.3315 21.6744 66.7376 18.0961C66.4048 17.9427 66.4048 17.9427 65.9843 17.8298C65.8201 17.781 65.656 17.7321 65.4868 17.6818C65.3026 17.6289 65.1183 17.5759 64.9341 17.5231C64.7403 17.4661 64.5466 17.409 64.353 17.3517C63.9324 17.2277 63.5115 17.1047 63.0903 16.9826C62.4165 16.7872 61.7433 16.5896 61.0701 16.3916C60.2278 16.144 59.3853 15.897 58.5426 15.6508C56.8274 15.1497 55.1135 14.6441 53.4 14.1371C53.2664 14.0976 53.1328 14.0581 52.9951 14.0173C52.4589 13.8587 51.9228 13.7001 51.3866 13.5414C50.4843 13.2744 49.582 13.0078 48.6795 12.7413C48.496 12.6872 48.496 12.6872 48.3089 12.6319C47.716 12.4569 47.1231 12.282 46.5301 12.1071C45.496 11.802 44.4622 11.4961 43.4291 11.1874C43.2533 11.1349 43.0774 11.0825 42.9016 11.03C42.5837 10.9351 42.2659 10.8399 41.9482 10.7443C41.7435 10.6832 41.7435 10.6832 41.5346 10.6208C41.4171 10.5856 41.2996 10.5503 41.1786 10.5139C40.9021 10.4282 40.9021 10.4282 40.6243 10.4398Z" fill="#18315C"/>
<path d="M41.5978 21.745C41.8787 21.8822 42.1596 22.0195 42.4405 22.1567C42.6635 22.2666 42.6635 22.2666 42.8909 22.3786C43.6211 22.7372 44.3542 23.0899 45.0871 23.4429C45.3424 23.566 45.5975 23.6892 45.8526 23.8125C46.8541 24.2966 47.8569 24.7781 48.861 25.257C50.1993 25.8956 51.5342 26.5412 52.8686 27.1881C52.9677 27.2362 53.0669 27.2843 53.1691 27.3338C53.4537 27.4717 53.7382 27.6097 54.0227 27.7478C54.1071 27.7888 54.1916 27.8297 54.2786 27.8719C54.5123 27.9854 54.7457 28.0994 54.9791 28.2135C55.1991 28.3083 55.1991 28.3083 55.4235 28.405C55.8652 28.6619 55.9849 28.8535 56.2096 29.3072C56.2609 29.6542 56.2609 29.6542 56.2608 30.0285C56.2617 30.1711 56.2627 30.3137 56.2637 30.4606C56.2626 30.6156 56.2616 30.7706 56.2605 30.9302C56.261 31.0946 56.2615 31.259 56.262 31.4283C56.263 31.878 56.262 32.3277 56.2602 32.7774C56.2587 33.2485 56.2592 33.7197 56.2595 34.1909C56.2596 34.9821 56.2581 35.7732 56.2556 36.5644C56.2527 37.4784 56.2522 38.3924 56.2531 39.3064C56.2538 40.1866 56.2531 41.0667 56.2515 41.9469C56.2509 42.321 56.2508 42.6952 56.2511 43.0693C56.2511 43.592 56.2494 44.1147 56.2472 44.6374C56.2475 44.7924 56.2478 44.9474 56.2482 45.107C56.2472 45.2496 56.2463 45.3922 56.2453 45.5392C56.2448 45.7244 56.2448 45.7244 56.2444 45.9134C56.205 46.3067 56.1163 46.5923 55.9362 46.944C55.6078 47.1629 55.3053 47.3359 54.9535 47.5079C54.8504 47.5603 54.7473 47.6128 54.6411 47.6668C54.2995 47.839 53.9561 48.0073 53.612 48.1744C53.4413 48.2574 53.4413 48.2574 53.2672 48.3421C52.6373 48.6469 52.0056 48.9478 51.3732 49.2474C50.4143 49.7022 49.4596 50.1657 48.505 50.6295C44.7835 52.4376 44.7835 52.4376 43.186 53.192C42.9236 53.3164 42.6617 53.4417 42.4001 53.5677C41.9883 53.7659 41.5754 53.9611 41.162 54.1559C41.0375 54.2165 40.9129 54.2771 40.7846 54.3395C40.6679 54.3938 40.5511 54.4481 40.4309 54.5041C40.3292 54.5525 40.2275 54.6009 40.1227 54.6508C39.2184 54.8947 38.3938 54.3456 37.6079 53.9519C37.4068 53.8528 37.4068 53.8528 37.2018 53.7518C36.7725 53.54 36.3439 53.3267 35.9154 53.1134C35.3575 52.8371 34.7993 52.5614 34.2412 52.2856C34.1021 52.2168 33.9631 52.148 33.8198 52.077C32.4711 51.4104 31.114 50.7616 29.7555 50.1151C28.3164 49.4294 26.8821 48.7337 25.4479 48.0377C25.3204 47.976 25.1928 47.9143 25.0614 47.8507C24.7455 47.6975 24.43 47.5432 24.1149 47.3883C24.027 47.3458 23.939 47.3033 23.8484 47.2595C23.2762 46.9756 23.2762 46.9756 23.1237 46.6705C23.1095 46.4362 23.104 46.2013 23.1026 45.9666C23.1015 45.8174 23.1003 45.6683 23.0991 45.5147C23.0985 45.3503 23.0979 45.1859 23.0973 45.0166C23.0962 44.8441 23.0951 44.6716 23.0939 44.4938C23.0903 43.9209 23.0882 43.348 23.0863 42.7751C23.0856 42.578 23.0848 42.3809 23.0841 42.1837C23.0811 41.3639 23.0786 40.5441 23.077 39.7243C23.0748 38.5488 23.0703 37.3733 23.0625 36.1978C23.0572 35.3715 23.0545 34.5453 23.0538 33.7191C23.0533 33.2254 23.0517 32.7318 23.0472 32.2381C23.0424 31.6875 23.0429 31.137 23.0439 30.5864C23.0417 30.4226 23.0394 30.2588 23.0371 30.09C23.0455 28.985 23.0455 28.985 23.451 28.529C23.5685 28.47 23.6861 28.411 23.8073 28.3502C23.9617 28.264 23.9617 28.264 24.1193 28.1761C24.2257 28.1264 24.3321 28.0767 24.4417 28.0255C24.5638 27.9679 24.6858 27.9103 24.8115 27.8509C25.0081 27.7597 25.0081 27.7597 25.2086 27.6666C25.4931 27.5326 25.7776 27.3986 26.0621 27.2645C26.209 27.1955 26.3559 27.1266 26.5073 27.0556C27.2214 26.7193 27.9325 26.3768 28.6437 26.0345C28.931 25.8966 29.2183 25.7586 29.5057 25.6206C29.6484 25.5521 29.7911 25.4836 29.9381 25.413C30.793 25.0024 31.6479 24.5921 32.5029 24.1818C33.382 23.76 34.2609 23.3375 35.1395 22.9147C35.5701 22.7078 36.0012 22.5019 36.4324 22.2961C36.905 22.0703 37.375 21.8405 37.8423 21.604C37.9357 21.5577 38.0291 21.5114 38.1253 21.4637C38.3625 21.346 38.5986 21.226 38.8346 21.1057C39.851 20.7725 40.7019 21.298 41.5978 21.745ZM38.8757 23.4561C38.74 23.5217 38.6043 23.5872 38.4645 23.6548C38.317 23.7267 38.1695 23.7986 38.0175 23.8727C37.704 24.0244 37.3905 24.176 37.077 24.3277C36.9163 24.4057 36.7555 24.4837 36.5899 24.564C35.8619 24.9167 35.1324 25.2662 34.403 25.6158C34.1192 25.752 33.8354 25.8882 33.5517 26.0244C33.4108 26.092 33.27 26.1596 33.1248 26.2293C32.6867 26.4396 32.2487 26.6502 31.8107 26.8607C31.6652 26.9306 31.5197 27.0005 31.3698 27.0725C31.0823 27.2107 30.7947 27.349 30.5073 27.4874C29.8362 27.81 29.1641 28.13 28.4888 28.4437C28.3066 28.5286 28.3066 28.5286 28.1208 28.6153C27.8942 28.7207 27.6673 28.8254 27.44 28.9292C26.8968 29.1477 26.8968 29.1477 26.5416 29.5807C27.1662 29.8882 27.7912 30.1947 28.4167 30.5003C28.6291 30.6042 28.8414 30.7084 29.0536 30.813C29.3597 30.9637 29.6663 31.1134 29.973 31.263C30.0667 31.3094 30.1605 31.3558 30.2571 31.4037C31.3387 31.9615 31.3387 31.9615 32.5084 31.8832C32.6871 31.7961 32.8643 31.7057 33.0401 31.6128C33.1364 31.5649 33.2327 31.517 33.3319 31.4676C33.6448 31.3113 33.9555 31.151 34.2663 30.9906C34.4831 30.8815 34.7001 30.7727 34.9172 30.6642C35.3479 30.4487 35.7779 30.2319 36.2074 30.0139C36.9503 29.638 37.7007 29.2787 38.4533 28.9227C38.6979 28.8062 38.9425 28.6896 39.1871 28.5729C39.3683 28.4865 39.3683 28.4865 39.5533 28.3983C39.982 28.1935 40.4102 27.9875 40.8384 27.7814C40.9906 27.7082 41.1429 27.6349 41.2997 27.5594C41.5902 27.4196 41.8806 27.2797 42.1709 27.1396C43.0626 26.7106 43.9595 26.295 44.862 25.8893C44.862 25.799 44.862 25.7088 44.862 25.6158C44.1469 25.2647 43.4315 24.9142 42.7157 24.5644C42.4721 24.4452 42.2287 24.3259 41.9853 24.2063C41.636 24.0348 41.2863 23.8639 40.9366 23.6932C40.8274 23.6394 40.7182 23.5856 40.6056 23.5301C39.8402 23.1577 39.628 23.0907 38.8757 23.4561ZM46.1939 27.3916C46.0204 27.4765 46.0204 27.4765 45.8433 27.5631C45.5945 27.6849 45.3457 27.8068 45.097 27.9288C44.4491 28.2465 43.8008 28.5632 43.1524 28.88C43.0255 28.9421 42.8985 29.0041 42.7677 29.068C39.9264 30.4563 37.0626 31.7964 34.1979 33.1354C34.5904 33.4479 34.9801 33.676 35.4332 33.8905C35.5665 33.954 35.6998 34.0174 35.8372 34.0828C36.0451 34.1806 36.0451 34.1806 36.2572 34.2804C36.3921 34.3445 36.527 34.4087 36.666 34.4748C36.9377 34.6036 37.2098 34.7314 37.4824 34.8581C37.7559 34.9867 38.0277 35.119 38.2978 35.2546C39.0239 35.6172 39.0239 35.6172 39.8124 35.749C40.4216 35.5171 40.9944 35.2305 41.5722 34.9298C41.843 34.7916 42.1139 34.6536 42.385 34.5159C42.5931 34.4099 42.5931 34.4099 42.8054 34.3018C43.4551 33.9747 44.111 33.6612 44.768 33.349C44.8971 33.2875 45.0263 33.226 45.1593 33.1627C45.425 33.0363 45.6907 32.9099 45.9564 32.7836C46.6691 32.444 47.3804 32.1017 48.0919 31.7596C49.6113 31.0298 51.1326 30.3041 52.6549 29.5807C52.3779 29.2815 52.1278 29.0875 51.7611 28.9106C51.6181 28.8409 51.6181 28.8409 51.4722 28.7697C51.3701 28.721 51.268 28.6722 51.1628 28.622C51.0575 28.571 50.9522 28.52 50.8437 28.4675C50.6216 28.3601 50.3993 28.2531 50.1769 28.1466C49.835 27.9827 49.4938 27.8177 49.1526 27.6525C48.9369 27.5483 48.7211 27.4443 48.5053 27.3403C48.4026 27.2908 48.2999 27.2412 48.1942 27.1901C47.2901 26.7575 47.0713 26.9601 46.1939 27.3916ZM25.0377 31.0846C25.0377 35.867 25.0377 40.6494 25.0377 45.5768C29.3568 47.6913 29.3568 47.6913 33.6902 49.7745C34.1174 49.9786 34.5435 50.1849 34.9696 50.3913C35.2017 50.5035 35.2017 50.5035 35.4384 50.618C35.7353 50.7616 36.0319 50.9055 36.3283 51.0498C36.4626 51.1147 36.5969 51.1795 36.7352 51.2463C36.8527 51.3033 36.9701 51.3604 37.0911 51.4191C37.5758 51.6356 38.0759 51.8162 38.5729 52.0026C38.5729 47.2201 38.5729 42.4377 38.5729 37.5104C37.0164 36.7659 37.0164 36.7659 35.4284 36.0065C34.7662 35.6861 34.1042 35.3658 33.4427 35.0441C32.0408 34.3625 30.6383 33.6822 29.2333 33.0072C29.1237 32.9542 29.0141 32.9013 28.9011 32.8467C27.6238 32.2347 26.3305 31.6663 25.0377 31.0846ZM53.4917 31.3368C53.3786 31.3922 53.2655 31.4477 53.1489 31.5048C53.025 31.5658 52.9011 31.6268 52.7735 31.6897C52.6456 31.7524 52.5178 31.8151 52.386 31.8797C52.1114 32.0144 51.8368 32.1492 51.5623 32.284C50.8512 32.6334 50.1397 32.9819 49.4282 33.3303C49.2896 33.3982 49.1511 33.466 49.0084 33.5359C48.0613 33.9995 47.1129 34.4596 46.1608 34.9127C46.0472 34.9668 45.9337 35.0208 45.8167 35.0765C45.5851 35.1867 45.3535 35.2969 45.1219 35.4071C44.3568 35.772 43.5928 36.1391 42.8291 36.5068C42.6476 36.5941 42.466 36.6814 42.2844 36.7685C42.033 36.8891 41.7817 37.0101 41.5305 37.1312C41.3124 37.236 41.3124 37.236 41.09 37.343C40.7752 37.4814 40.7752 37.4814 40.6237 37.6471C40.6106 37.8339 40.607 38.0213 40.6072 38.2085C40.6071 38.3295 40.6069 38.4505 40.6067 38.5751C40.6072 38.7089 40.6077 38.8426 40.6082 38.9804C40.6081 39.1204 40.6081 39.2605 40.6081 39.4048C40.6082 39.8701 40.6093 40.3354 40.6103 40.8007C40.6106 41.1224 40.6108 41.444 40.6109 41.7657C40.6114 42.6142 40.6128 43.4626 40.6143 44.3111C40.6157 45.1762 40.6163 46.0412 40.617 46.9063C40.6185 48.6051 40.6208 50.3038 40.6237 52.0026C41.1081 51.8473 41.5705 51.6831 42.0269 51.4584C42.1883 51.3794 42.1883 51.3794 42.353 51.2988C42.4673 51.2422 42.5817 51.1856 42.6996 51.1272C42.8204 51.068 42.9412 51.0087 43.0657 50.9476C43.3234 50.8211 43.5811 50.6944 43.8386 50.5674C44.508 50.2375 45.1783 49.9092 45.8484 49.5806C45.9789 49.5165 46.1094 49.4525 46.2439 49.3865C47.1708 48.9317 48.0996 48.4814 49.0319 48.0377C50.7434 47.2227 52.4508 46.3991 54.1588 45.5768C54.1588 40.7944 54.1588 36.0119 54.1588 31.0846C53.9147 31.0846 53.7074 31.2309 53.4917 31.3368Z" fill="#18315C"/>
<path d="M40.0774 59.1117C40.4947 59.4159 40.6117 59.5795 40.6937 60.0944C40.6942 60.2664 40.6946 60.4384 40.6951 60.6156C40.6965 60.7585 40.6965 60.7585 40.698 60.9042C40.7004 61.2182 40.6988 61.5321 40.6969 61.8461C40.6973 62.0647 40.6978 62.2833 40.6985 62.5019C40.6993 62.9598 40.6982 63.4177 40.6956 63.8755C40.6925 64.4622 40.6943 65.0487 40.6976 65.6354C40.6995 66.0867 40.6989 66.538 40.6975 66.9894C40.6971 67.2057 40.6976 67.4219 40.6988 67.6382C40.7002 67.9407 40.6981 68.2429 40.6951 68.5453C40.6946 68.7173 40.6942 68.8894 40.6937 69.0666C40.6119 69.5802 40.4905 69.7425 40.0774 70.0492C39.6758 70.1261 39.6758 70.1261 39.2571 70.0492C38.8067 69.6932 38.5973 69.4895 38.4876 68.9186C38.4875 68.7493 38.4874 68.5801 38.4872 68.4056C38.4863 68.3117 38.4853 68.2178 38.4843 68.1211C38.482 67.8122 38.4846 67.5036 38.4875 67.1947C38.4874 66.9794 38.4871 66.764 38.4865 66.5487C38.4861 66.098 38.4882 65.6475 38.4919 65.1968C38.4966 64.6195 38.4957 64.0424 38.4932 63.465C38.4917 63.0206 38.493 62.5762 38.495 62.1318C38.4957 61.919 38.4957 61.7061 38.4948 61.4932C38.4941 61.1957 38.4968 60.8984 38.5006 60.6009C38.5014 60.4318 38.5023 60.2626 38.5032 60.0883C38.6538 59.1683 39.2139 58.9884 40.0774 59.1117Z" fill="#18315C"/>
<path d="M29.8233 37.3737C30.2182 37.5037 30.5826 37.6817 30.9539 37.8677C31.0581 37.9183 31.1623 37.969 31.2697 38.0211C31.4885 38.1279 31.7069 38.2356 31.9249 38.3442C32.2589 38.5104 32.5944 38.6732 32.9302 38.8357C33.1431 38.9401 33.3559 39.0447 33.5686 39.1495C33.6689 39.1982 33.7692 39.2469 33.8724 39.2971C34.3366 39.5299 34.5884 39.6679 34.8819 40.1081C34.9568 40.9469 34.9568 40.9469 34.7195 41.3215C34.405 41.5167 34.1554 41.566 33.7881 41.612C33.4893 41.537 33.4893 41.537 33.1809 41.4027C33.0621 41.3514 32.9433 41.3001 32.8209 41.2472C32.6889 41.1871 32.5569 41.127 32.421 41.0651C32.2726 40.998 32.1242 40.9308 31.9713 40.8617C31.484 40.6374 30.9995 40.4076 30.5154 40.1765C30.3473 40.0979 30.1792 40.0194 30.011 39.9409C29.852 39.865 29.6929 39.789 29.529 39.7108C29.3852 39.6426 29.2414 39.5745 29.0933 39.5043C28.7203 39.2823 28.5364 39.1133 28.3194 38.7409C28.2473 38.2463 28.2566 38.0161 28.533 37.5959C28.9961 37.2872 29.2705 37.3269 29.8233 37.3737Z" fill="#18315C"/>
</svg>
