<svg width="80" height="80" viewBox="0 0 80 80" fill="none" xmlns="http://www.w3.org/2000/svg">
<path d="M24.3286 8C25.0896 8.09131 25.2257 8.28536 25.7202 8.85449C25.9408 9.19276 26.1494 9.53901 26.3481 9.89056C26.4649 10.0954 26.5818 10.3002 26.7021 10.5112C26.8868 10.8392 26.8868 10.8392 27.0752 11.1738C27.3351 11.6314 27.5958 12.0885 27.8565 12.5456C27.9222 12.6611 27.9879 12.7766 28.0556 12.8956C28.828 14.2508 29.6291 15.5891 30.4348 16.9248C30.5344 17.0915 30.634 17.2582 30.7366 17.4299C30.8243 17.5756 30.912 17.7212 31.0024 17.8713C31.189 18.2295 31.189 18.2295 31.189 18.6201C31.3692 18.6124 31.3692 18.6124 31.5531 18.6046C32.099 18.5843 32.6448 18.5716 33.1909 18.5591C33.38 18.5509 33.5691 18.5427 33.7639 18.5343C35.1529 18.5103 35.1529 18.5103 35.743 18.981C35.8515 19.1842 35.96 19.3873 36.0718 19.5967C36.1535 19.7445 36.2353 19.8924 36.3195 20.0447C36.6168 20.5907 36.9006 21.1423 37.1826 21.6963C37.3892 22.0997 37.596 22.5031 37.8029 22.9063C37.9053 23.1058 38.0077 23.3052 38.1131 23.5107C38.3911 24.0421 38.6786 24.5661 38.9733 25.0883C39.0986 25.3131 39.0986 25.3131 39.2264 25.5425C39.382 25.8201 39.5403 26.0963 39.7016 26.3706C39.9094 26.7454 39.9094 26.7454 40.1734 27.4092C40.0445 27.7314 39.9156 28.0537 39.7827 28.3857C36.8824 28.3857 33.982 28.3857 30.9937 28.3857C30.9937 32.124 30.9937 35.8623 30.9937 39.7139C32.3472 39.7139 33.7007 39.7139 35.0952 39.7139C35.9727 40.5914 36.4418 41.4464 37.0117 42.5337C37.1123 42.7176 37.2129 42.9015 37.3165 43.091C37.4106 43.2694 37.5046 43.4478 37.6015 43.6316C37.6876 43.7933 37.7736 43.9551 37.8623 44.1217C38.0554 44.6858 37.9936 45.0078 37.8296 45.5732C36.937 45.4752 36.937 45.4752 36.566 45.0454C36.4905 44.9041 36.4151 44.7629 36.3373 44.6173C36.2532 44.4628 36.1691 44.3084 36.0825 44.1492C35.9984 43.9867 35.9143 43.8242 35.8277 43.6567C35.7406 43.4965 35.6534 43.3362 35.5637 43.1711C35.1834 42.4607 34.9018 41.8698 34.7046 41.0811C32.0943 41.1777 32.0943 41.1777 29.4312 41.2764C30.114 42.3701 30.114 42.3701 30.8106 43.4858C30.9511 43.711 31.0916 43.9362 31.2363 44.1681C31.4825 44.5622 31.7301 44.9555 31.9787 45.348C32.2325 45.757 32.4782 46.1711 32.7152 46.59C33.3373 47.7334 33.3373 47.7334 34.417 48.3648C34.6368 48.358 34.8566 48.3512 35.083 48.3442C35.3064 48.343 35.5297 48.3417 35.7598 48.3404C35.9272 48.3296 36.0946 48.3188 36.2671 48.3076C36.3418 48.6311 36.4066 48.9569 36.4624 49.2842C36.1276 49.619 35.6803 49.5245 35.2227 49.5413C34.9064 49.5536 34.9064 49.5536 34.5837 49.5661C34.3618 49.5738 34.1398 49.5814 33.9112 49.5894C33.6885 49.5978 33.4658 49.6062 33.2363 49.6149C32.6841 49.6357 32.1319 49.6556 31.5796 49.6748C31.6379 49.9123 31.6962 50.1497 31.7563 50.3944C32.3068 52.6381 32.8557 54.8823 33.403 57.1268C33.6844 58.2805 33.9664 59.4342 34.2497 60.5875C34.5233 61.7016 34.7954 62.816 35.0665 63.9307C35.1699 64.3548 35.2739 64.7788 35.3784 65.2026C35.5252 65.7987 35.6702 66.3952 35.8146 66.9919C35.8793 67.2515 35.8793 67.2515 35.9453 67.5164C36.2354 68.7263 36.379 69.9183 36.4624 71.1592C36.1402 71.2236 35.8179 71.2881 35.4859 71.3545C34.2935 69.9753 33.1094 68.5948 31.9794 67.1637C31.5111 66.5818 31.0272 66.014 30.542 65.4463C29.7989 64.5759 29.082 63.6901 28.3814 62.7852C27.5915 61.7673 26.7719 60.7801 25.9278 59.8066C25.8215 59.6841 25.7153 59.5615 25.6059 59.4352C25.0769 58.8298 24.5404 58.2424 23.9624 57.6826C23.9204 57.7851 23.8783 57.8876 23.835 57.9931C23.4686 58.6485 22.979 59.1847 22.4854 59.7456C22.2716 59.9916 22.0579 60.2378 21.8445 60.4841C21.6867 60.6662 21.6867 60.6662 21.5256 60.8519C21.1211 61.3228 20.7282 61.8027 20.3369 62.2847C19.7062 63.0609 19.0671 63.8289 18.4204 64.5918C18.331 64.6973 18.2416 64.8029 18.1494 64.9117C17.6836 65.4608 17.2167 66.0089 16.7488 66.5564C16.6546 66.6669 16.5605 66.7775 16.4634 66.8914C16.2034 67.1966 15.9428 67.5013 15.6822 67.8061C15.29 68.2739 14.9207 68.7555 14.5556 69.2447C14.4515 69.3842 14.3473 69.5236 14.24 69.6673C14.1613 69.7729 14.0826 69.8785 14.0015 69.9873C14.2135 69.9869 14.4255 69.9864 14.644 69.986C16.6386 69.982 18.6332 69.9791 20.6278 69.9772C21.6533 69.9762 22.6788 69.9748 23.7044 69.9726C24.6934 69.9705 25.6825 69.9693 26.6715 69.9688C27.0495 69.9684 27.4275 69.9677 27.8055 69.9667C28.3335 69.9652 28.8615 69.965 29.3895 69.9651C29.6257 69.9641 29.6257 69.9641 29.8667 69.963C30.9491 69.965 30.9491 69.965 31.3843 70.1826C31.3927 70.508 31.3922 70.8338 31.3843 71.1592C31.0099 71.5336 30.4528 71.3806 29.9543 71.3831C29.7767 71.383 29.599 71.383 29.416 71.3829C29.1368 71.3838 29.1368 71.3838 28.8521 71.3848C28.2336 71.3867 27.6151 71.3871 26.9966 71.3873C26.5687 71.3879 26.1408 71.3886 25.7129 71.3893C24.8146 71.3904 23.9163 71.3908 23.018 71.3907C21.8644 71.3907 20.7108 71.3933 19.5572 71.3967C18.6731 71.3989 17.7889 71.3993 16.9047 71.3992C16.4793 71.3994 16.0539 71.4003 15.6285 71.4018C15.0345 71.4037 14.4406 71.4031 13.8467 71.4019C13.6694 71.403 13.4921 71.4041 13.3095 71.4053C12.093 71.3991 12.093 71.3991 11.6577 70.9639C11.6877 70.5693 11.6877 70.5693 11.7979 70.0888C11.8373 69.913 11.8767 69.7372 11.9173 69.5561C11.9606 69.3761 12.0038 69.1962 12.0484 69.0107C12.0865 68.8488 12.1246 68.6869 12.1639 68.5201C12.2863 68.0112 12.4131 67.5036 12.5409 66.9961C12.6125 66.7099 12.6125 66.7099 12.6854 66.418C12.8414 65.7944 12.998 65.171 13.1546 64.5475C13.2636 64.1125 13.3725 63.6773 13.4814 63.2422C13.7667 62.1023 14.0526 60.9625 14.3387 59.8227C14.631 58.6575 14.9227 57.4922 15.2146 56.3269C15.7863 54.0443 16.3586 51.7619 16.9312 49.4795C14.0952 49.4795 11.2593 49.4795 8.33743 49.4795C7.94681 48.5029 7.94681 48.5029 8.08042 48.0448C8.16573 47.8878 8.25105 47.7308 8.33896 47.5691C8.43403 47.3904 8.52911 47.2116 8.62706 47.0275C8.78582 46.7427 8.78582 46.7427 8.94778 46.4521C9.05387 46.256 9.15996 46.0598 9.26927 45.8577C9.60552 45.2397 9.94736 44.625 10.2906 44.0107C10.4016 43.8101 10.5126 43.6095 10.627 43.4029C10.944 42.8312 11.2634 42.2609 11.5845 41.6914C11.6837 41.515 11.783 41.3387 11.8852 41.157C11.9778 40.9955 12.0704 40.8339 12.1659 40.6675C12.2471 40.5253 12.3283 40.3831 12.412 40.2366C12.6343 39.9092 12.6343 39.9092 13.0249 39.7139C14.3784 39.7139 15.732 39.7139 17.1265 39.7139C17.1265 35.9756 17.1265 32.2373 17.1265 28.3857C14.2428 28.3935 14.2428 28.3935 11.3591 28.4033C10.9991 28.4039 10.6391 28.4044 10.2791 28.4048C10.0903 28.4058 9.90157 28.4068 9.70707 28.4078C9.52866 28.4079 9.35024 28.4079 9.16641 28.4079C8.93286 28.4086 8.93286 28.4086 8.69458 28.4092C8.33743 28.3857 8.33743 28.3857 8.14212 28.1904C8.18699 26.8641 8.77657 25.8598 9.39944 24.7114C9.5039 24.5155 9.60835 24.3196 9.71597 24.1178C10.0354 23.5209 10.3579 22.9258 10.6812 22.3311C10.7787 22.15 10.8762 21.9689 10.9767 21.7824C11.2428 21.2889 11.5107 20.7965 11.7798 20.3047C11.8605 20.1562 11.9412 20.0077 12.0243 19.8547C12.5883 18.8385 12.5883 18.8385 13.0249 18.6201C13.3791 18.6036 13.7339 18.5992 14.0885 18.601C14.4038 18.602 14.4038 18.602 14.7255 18.603C14.9458 18.6046 15.1661 18.6062 15.3931 18.6079C15.7258 18.6092 15.7258 18.6092 16.0652 18.6106C16.6143 18.6129 17.1634 18.6161 17.7124 18.6201C17.7656 18.4472 17.8188 18.2742 17.8736 18.096C18.0857 17.4973 18.3278 17.0044 18.6501 16.4595C18.7593 16.2736 18.8685 16.0877 18.981 15.8961C19.0981 15.6993 19.2153 15.5026 19.336 15.2998C19.4564 15.0957 19.5768 14.8916 19.7008 14.6813C19.9524 14.2552 20.2044 13.8293 20.4568 13.4037C20.8296 12.774 21.1997 12.1428 21.5691 11.511C21.7972 11.1219 22.0253 10.7328 22.2534 10.3438C22.3605 10.1605 22.4676 9.97717 22.5779 9.78833C22.727 9.5353 22.727 9.5353 22.8791 9.27716C22.966 9.12903 23.0529 8.98089 23.1425 8.82827C23.5031 8.2667 23.6513 8.08835 24.3286 8ZM24.3531 9.44043C24.1689 9.72678 23.995 10.0198 23.8251 10.3148C23.7152 10.5045 23.6054 10.6941 23.4922 10.8896C23.3734 11.0962 23.2547 11.3028 23.1324 11.5156C22.8848 11.9437 22.6371 12.3717 22.3893 12.7997C22.2622 13.0193 22.1351 13.2389 22.0042 13.4652C21.293 14.6878 20.5689 15.9028 19.8439 17.1172C19.6929 17.3713 19.6929 17.3713 19.5389 17.6306C19.4499 17.7797 19.361 17.9289 19.2693 18.0826C19.0638 18.3881 19.0638 18.3881 19.0796 18.6201C22.5601 18.6201 26.0406 18.6201 29.6265 18.6201C29.3365 17.8951 29.0468 17.2713 28.6682 16.5968C28.556 16.3964 28.4438 16.196 28.3281 15.9895C28.2087 15.778 28.0893 15.5665 27.9663 15.3486C27.7837 15.0241 27.7837 15.0241 27.5973 14.6929C26.8616 13.3892 26.1209 12.0883 25.3662 10.7954C25.2854 10.6561 25.2046 10.5168 25.1213 10.3733C24.9361 10.0589 24.7432 9.749 24.5484 9.44043C24.4839 9.44043 24.4195 9.44043 24.3531 9.44043ZM14.9781 19.9873C15.2719 20.7812 15.6501 21.4935 16.0698 22.2281C16.1372 22.3462 16.2047 22.4644 16.2741 22.5861C16.4161 22.8346 16.5585 23.083 16.7011 23.3311C16.9184 23.7095 17.1345 24.0885 17.3504 24.4677C17.4891 24.7099 17.6278 24.9522 17.7666 25.1944C17.892 25.4132 18.0173 25.632 18.1465 25.8574C18.2611 26.0472 18.3756 26.237 18.4937 26.4326C18.5804 26.5855 18.6671 26.7384 18.7564 26.8959C19.0713 27.267 19.0713 27.267 19.6302 27.3026C19.957 27.2964 19.957 27.2964 20.2904 27.2902C20.5264 27.2876 20.7625 27.2851 21.0057 27.2825C21.2523 27.276 21.4989 27.2694 21.753 27.2627C22.1263 27.2574 22.1263 27.2574 22.5071 27.252C23.1226 27.2428 23.7377 27.2299 24.3531 27.2139C23.9282 26.0915 23.3332 25.0814 22.7417 24.04C22.6322 23.8449 22.5227 23.6498 22.4099 23.4488C22.1909 23.062 21.9681 22.6774 21.7412 22.2951C21.4234 21.7451 21.4234 21.7451 21.1749 21.2138C20.908 20.6979 20.6998 20.3586 20.2515 19.9873C19.3387 19.7753 18.4721 19.8207 17.5415 19.8774C17.2953 19.8854 17.0491 19.8933 16.7954 19.9015C16.1888 19.9222 15.5838 19.951 14.9781 19.9873ZM21.814 19.9873C22.1604 20.6578 22.513 21.3224 22.8844 21.9793C23.2588 22.6592 23.5478 23.3441 23.8259 24.0683C24.581 25.8531 24.581 25.8531 25.9156 27.2139C27.9406 27.745 30.1134 27.4762 32.1656 27.2139C31.547 25.9074 30.8109 24.7055 30.0293 23.4907C29.9106 23.3043 29.7919 23.1179 29.6696 22.9258C29.4376 22.563 29.202 22.2026 28.9626 21.8446C28.6499 21.3545 28.6499 21.3545 28.4513 20.9197C28.23 20.4782 28.0878 20.261 27.6734 19.9873C26.6716 19.8197 25.6918 19.8587 24.6826 19.9019C24.4048 19.9087 24.127 19.915 23.8491 19.9205C23.1704 19.9356 22.4923 19.9591 21.814 19.9873ZM29.4312 19.9873C29.7379 20.7541 30.0321 21.3417 30.4665 22.0297C30.593 22.231 30.7195 22.4323 30.8499 22.6397C30.9819 22.848 31.114 23.0563 31.25 23.271C31.3798 23.4771 31.5096 23.6831 31.6433 23.8955C31.897 24.2983 32.1532 24.6995 32.4119 25.0991C32.7515 25.6514 32.7515 25.6514 32.9785 26.1449C33.1922 26.594 33.3502 26.8891 33.7281 27.2139C34.5378 27.4023 35.3072 27.3617 36.1328 27.3115C36.4616 27.3009 36.4616 27.3009 36.797 27.2902C37.3372 27.2718 37.876 27.2461 38.4156 27.2139C38.0898 26.0248 37.4849 25.0004 36.8897 23.9302C36.7878 23.7453 36.686 23.5603 36.5811 23.3698C36.2822 22.8276 35.9819 22.2862 35.6812 21.7451C35.1978 20.875 35.1978 20.875 34.7046 19.9873C32.9644 19.9873 31.2242 19.9873 29.4312 19.9873ZM13.4156 20.3779C12.4874 21.9842 11.5776 23.5999 10.6812 25.2241C10.5849 25.3979 10.4887 25.5717 10.3895 25.7507C10.3005 25.9126 10.2114 26.0744 10.1197 26.2411C10.0396 26.3863 9.95953 26.5316 9.87704 26.6812C9.6898 26.9844 9.6898 26.9844 9.70462 27.2139C12.2827 27.2139 14.8609 27.2139 17.5171 27.2139C16.6684 25.6579 15.8085 24.1181 14.917 22.5874C14.7318 22.2666 14.7318 22.2666 14.5428 21.9393C14.3666 21.6366 14.3666 21.6366 14.1869 21.3278C14.0808 21.1451 13.9747 20.9624 13.8655 20.7741C13.7814 20.6434 13.6974 20.5126 13.6109 20.3779C13.5464 20.3779 13.482 20.3779 13.4156 20.3779ZM19.4702 28.3857C20.4503 29.5313 20.4503 29.5313 21.4829 30.6128C21.6289 30.7582 21.7749 30.9036 21.9254 31.0534C22.0739 31.2003 22.2225 31.3472 22.3755 31.4985C22.5286 31.6507 22.6817 31.8029 22.8394 31.9597C23.2133 32.3314 23.5876 32.7025 23.9624 33.0732C24.6953 32.7682 25.1606 32.3134 25.7172 31.7541C25.8071 31.6641 25.8971 31.5741 25.9897 31.4813C26.1786 31.2918 26.367 31.1019 26.555 30.9115C26.844 30.6189 27.1346 30.3279 27.4254 30.0371C28.3168 29.3029 28.3168 29.3029 28.8452 28.3857C25.7515 28.3857 22.6577 28.3857 19.4702 28.3857ZM29.192 29.7747C29.0024 29.9643 28.8134 30.1544 28.6248 30.345C28.5253 30.4447 28.4259 30.5444 28.3234 30.6471C28.0046 30.9671 27.6864 31.2877 27.3682 31.6084C27.1527 31.8249 26.9372 32.0413 26.7216 32.2577C26.192 32.7894 25.663 33.3218 25.1343 33.8545C25.4394 34.5873 25.8941 35.0526 26.4534 35.6093C26.5885 35.7442 26.5885 35.7442 26.7262 35.8818C26.9157 36.0707 27.1057 36.2591 27.296 36.4471C27.5886 36.7361 27.8796 37.0266 28.1704 37.3175C28.9046 38.2088 28.9046 38.2088 29.8218 38.7373C29.8218 35.6436 29.8218 32.5498 29.8218 29.3623C29.5503 29.3399 29.5503 29.3399 29.192 29.7747ZM18.4937 29.5576C18.4937 32.5225 18.4937 35.4873 18.4937 38.542C19.5999 37.5994 19.5999 37.5994 20.6299 36.6011C21.284 35.9329 21.9725 35.33 22.699 34.7418C23.0532 34.439 23.0532 34.439 22.9859 33.8545C22.5839 33.3676 22.5839 33.3676 22.0528 32.8573C21.9579 32.7628 21.863 32.6682 21.7652 32.5708C21.5644 32.3714 21.3629 32.1726 21.1608 31.9745C20.8502 31.67 20.5417 31.3634 20.2336 31.0564C19.4439 30.0934 19.4439 30.0934 18.4937 29.5576ZM23.2554 35.7063C23.1581 35.8039 23.0609 35.9016 22.9607 36.0022C22.8613 36.1014 22.7618 36.2007 22.6594 36.3029C22.4488 36.5133 22.2385 36.724 22.0284 36.9349C21.7055 37.2589 21.3816 37.5818 21.0575 37.9046C20.8536 38.1086 20.6498 38.3127 20.446 38.5168C20.2996 38.6627 20.2996 38.6627 20.1501 38.8115C19.6772 39.1964 19.6772 39.1964 19.4702 39.7139C22.4995 39.7139 25.5288 39.7139 28.6499 39.7139C27.672 38.5705 27.672 38.5705 26.6442 37.4868C26.499 37.3414 26.3539 37.1961 26.2043 37.0462C26.0567 36.8993 25.909 36.7524 25.7569 36.6011C25.5297 36.3728 25.5297 36.3728 25.298 36.1399C25.1541 35.9962 25.0102 35.8526 24.8619 35.7046C24.7313 35.5742 24.6007 35.4438 24.4661 35.3095C23.8893 34.7799 23.7409 35.2241 23.2554 35.7063ZM14.7827 41.0811C14.8767 41.245 14.9707 41.409 15.0676 41.578C16.3496 43.8157 17.6162 46.062 18.8843 48.3076C20.689 48.3076 22.4937 48.3076 24.3531 48.3076C23.4789 46.5321 23.4789 46.5321 22.5251 44.8156C22.416 44.632 22.307 44.4483 22.1947 44.2591C22.0852 44.0764 21.9757 43.8938 21.8628 43.7056C21.7503 43.5161 21.6377 43.3267 21.5218 43.1315C21.1095 42.4391 20.6985 41.7516 20.2515 41.0811C19.683 40.9994 19.683 40.9994 19.0171 41.0238C18.7716 41.0257 18.5261 41.0276 18.2732 41.0296C18.0156 41.0345 17.7581 41.0394 17.4927 41.0444C17.231 41.0474 16.9693 41.05 16.7076 41.0524C16.0659 41.0594 15.4244 41.069 14.7827 41.0811ZM21.814 41.0811C21.8853 41.2202 21.9566 41.3594 22.03 41.5028C22.5675 42.5634 23.0701 43.6215 23.5215 44.7218C24.133 46.0738 24.7247 47.3766 25.9156 48.3076C27.9317 48.904 30.1153 48.6089 32.1656 48.3076C31.2703 46.7489 30.3408 45.2183 29.3701 43.7056C29.2492 43.5161 29.1282 43.3267 29.0036 43.1315C28.5647 42.4448 28.1254 41.7591 27.6734 41.0811C27.0667 40.9993 27.0667 40.9993 26.3535 41.0238C26.224 41.0247 26.0945 41.0255 25.9611 41.0263C25.547 41.0296 25.1332 41.037 24.7193 41.0444C24.4388 41.0474 24.1583 41.05 23.8777 41.0524C23.1898 41.0589 22.5019 41.069 21.814 41.0811ZM13.2202 41.4717C12.7504 42.3507 12.2811 43.2301 11.8124 44.1098C11.6528 44.409 11.4931 44.7081 11.3333 45.0072C11.1035 45.437 10.8744 45.8671 10.6453 46.2973C10.5737 46.431 10.5021 46.5646 10.4283 46.7024C10.1464 47.233 9.89504 47.7364 9.70462 48.3076C12.2827 48.3076 14.8609 48.3076 17.5171 48.3076C16.7437 46.9541 16.7437 46.9541 15.9546 45.5732C14.7827 43.5225 14.7827 43.5225 13.6109 41.4717C13.482 41.4717 13.3531 41.4717 13.2202 41.4717ZM19.2749 49.4795C19.9984 50.4441 20.7124 51.3776 21.4966 52.2871C22.4065 53.3518 23.291 54.434 24.1577 55.5342C24.8672 54.8426 25.5239 54.1216 26.1597 53.3613C26.2979 53.1969 26.2979 53.1969 26.4388 53.0292C26.7209 52.6929 27.002 52.3559 27.2827 52.0186C27.3708 51.9128 27.4589 51.807 27.5496 51.698C28.4801 50.648 28.4801 50.648 29.2359 49.4795C25.9488 49.4795 22.6617 49.4795 19.2749 49.4795ZM18.1031 50.2607C17.5378 52.4946 16.9741 54.7287 16.4122 56.9634C16.1513 58.001 15.8899 59.0384 15.6273 60.0755C15.3741 61.0756 15.1222 62.0761 14.8712 63.0768C14.7751 63.4593 14.6784 63.8416 14.5813 64.2239C14.4457 64.7577 14.3119 65.2918 14.1784 65.8261C14.1376 65.9855 14.0967 66.1448 14.0546 66.3089C13.8173 67.0863 13.8173 67.0863 14.0015 67.8389C15.016 66.6461 16.0296 65.4535 17.0166 64.2378C17.7888 63.2889 18.5829 62.3606 19.3814 61.434C20.1439 60.5474 20.8886 59.6488 21.6217 58.7378C21.9728 58.3127 22.3405 57.9136 22.7173 57.5117C23.234 56.9666 23.234 56.9666 23.1613 56.4314C22.947 55.8126 22.6583 55.4925 22.2046 55.0215C20.8752 53.6011 19.6503 52.1048 18.512 50.527C18.4415 50.4391 18.371 50.3513 18.2984 50.2607C18.2339 50.2607 18.1695 50.2607 18.1031 50.2607ZM30.0171 50.4561C29.7486 50.7506 29.4949 51.0587 29.2481 51.3716C29.0922 51.5665 28.9364 51.7613 28.7758 51.9621C28.6507 52.1187 28.6507 52.1187 28.523 52.2785C28.07 52.8385 27.603 53.3865 27.1363 53.9351C26.4648 54.7251 25.797 55.518 25.1343 56.3154C25.4005 57.1041 25.7478 57.5935 26.3184 58.1953C27.2727 59.226 28.1585 60.3009 29.0406 61.3936C29.9809 62.5513 30.93 63.7003 31.897 64.8359C32.731 65.8158 33.5371 66.8127 34.314 67.8389C34.6389 67.1891 34.3231 66.5219 34.155 65.8441C34.115 65.6783 34.075 65.5125 34.0338 65.3417C33.9009 64.7918 33.766 64.2424 33.6312 63.6931C33.5388 63.3127 33.4466 62.9323 33.3545 62.5518C33.1113 61.5491 32.8665 60.5467 32.6214 59.5445C32.3717 58.5223 32.1235 57.4997 31.8753 56.4772C31.3876 54.4698 30.8982 52.4628 30.4077 50.4561C30.2788 50.4561 30.1499 50.4561 30.0171 50.4561Z" fill="#18315C"/>
<path d="M46.2282 32.4874C46.4235 32.6828 46.4235 32.6828 46.4457 33.1532C46.4446 33.3567 46.4436 33.5602 46.4426 33.7699C46.4419 33.9896 46.4413 34.2093 46.4406 34.4356C46.4382 34.7825 46.4382 34.7825 46.4357 35.1364C46.4348 35.3684 46.4339 35.6004 46.433 35.8394C46.4307 36.4148 46.4275 36.9902 46.4235 37.5656C46.6075 37.6242 46.7916 37.6829 46.9812 37.7433C47.5954 37.9562 47.5954 37.9562 48.047 38.237C48.824 38.3996 49.2714 38.1307 49.9438 37.7415C50.4507 37.2539 50.4798 36.9511 50.5372 36.2564C50.5419 35.8301 50.5375 35.4037 50.525 34.9777C50.5245 34.5494 50.5245 34.1212 50.525 33.6929C50.521 33.5037 50.517 33.3146 50.5128 33.1197C50.525 32.6828 50.525 32.6828 50.7204 32.4874C52.0931 32.512 53.0147 32.9424 54.0407 33.8546C55.5024 35.628 55.7895 37.2668 55.6032 39.5187C55.2854 40.8334 54.47 41.9582 53.4547 42.839C53.1742 42.9668 52.8891 43.0853 52.6002 43.193C52.1971 43.339 52.1971 43.339 51.8922 43.6203C51.6975 44.3394 51.6764 45.0266 51.6969 45.7687C51.9507 45.813 52.2045 45.8573 52.466 45.903C54.345 46.3323 55.7794 47.3888 56.9704 48.8937C57.4636 49.7722 57.8242 50.6741 58.1422 51.6281C58.5889 51.7265 58.5889 51.7265 59.1188 51.6281C59.6499 51.0656 59.6499 51.0656 60.0954 50.4562C60.5559 50.2259 60.8407 50.2325 61.3544 50.2263C61.5344 50.2238 61.7143 50.2213 61.8998 50.2187C62.1924 50.2166 62.1924 50.2166 62.491 50.2143C62.6914 50.2128 62.8918 50.2112 63.0983 50.2096C63.5232 50.2069 63.9481 50.2048 64.3731 50.2032C65.0217 50.1999 65.6701 50.1913 66.3187 50.1827C66.7314 50.1807 67.1441 50.179 67.5569 50.1777C67.7504 50.1743 67.9439 50.1709 68.1433 50.1674C69.2972 50.171 69.9597 50.2707 70.8375 51.0421C71.1052 51.5775 71.0621 52.0098 71.0674 52.6091C71.0699 52.8561 71.0724 53.1032 71.075 53.3578C71.0766 53.6288 71.0781 53.8999 71.0794 54.1709C71.0802 54.3073 71.081 54.4436 71.0818 54.5841C71.0859 55.3058 71.0887 56.0275 71.0905 56.7492C71.0927 57.494 71.0994 58.2386 71.1071 58.9834C71.1123 59.5566 71.1139 60.1298 71.1146 60.703C71.1155 60.9775 71.1178 61.252 71.1214 61.5265C71.1262 61.9112 71.1255 62.2959 71.1246 62.6806C71.1258 62.8993 71.1269 63.1181 71.1281 63.3434C71.0113 64.066 70.756 64.389 70.2516 64.9093C69.7852 65.1425 69.4921 65.1318 68.9715 65.1361C68.787 65.138 68.6025 65.1399 68.4124 65.1418C68.1124 65.143 68.1124 65.143 67.8064 65.1443C67.6012 65.1454 67.3959 65.1465 67.1845 65.1477C66.7496 65.1495 66.3147 65.1508 65.8797 65.1516C65.2149 65.1535 64.5501 65.1595 63.8853 65.1657C63.463 65.1669 63.0407 65.168 62.6184 65.1687C62.4196 65.1711 62.2208 65.1735 62.016 65.176C60.247 65.1705 60.247 65.1705 59.5094 64.5187C59.2531 63.8961 59.2531 63.8961 59.1188 63.3468C58.351 63.3346 57.6346 63.3235 57.0154 63.8183C56.7999 64.0564 56.5855 64.2955 56.3722 64.5355C55.2057 65.6879 53.6711 66.2122 52.0875 66.4718C52.0825 66.6556 52.0775 66.8394 52.0723 67.0288C51.9606 69.4813 51.9606 69.4813 51.111 70.3781C50.1844 71.2143 49.4706 71.4267 48.2492 71.4088C47.4689 71.3166 47.0567 71.0452 46.4235 70.5734C45.5359 69.4289 45.4241 68.6474 45.4469 67.2531C45.31 67.2561 45.1731 67.2592 45.0321 67.2624C44.4095 67.2746 43.7869 67.2822 43.1642 67.2897C42.9488 67.2946 42.7334 67.2995 42.5115 67.3046C42.3032 67.3065 42.0948 67.3083 41.8802 67.3103C41.5933 67.3149 41.5933 67.3149 41.3006 67.3196C40.4614 67.2164 39.9506 66.8167 39.3312 66.2643C38.8559 65.437 38.905 64.6716 39.0016 63.7374C39.0661 63.5441 39.1305 63.3507 39.1969 63.1515C39.0519 63.1112 38.9069 63.0709 38.7575 63.0294C38.0261 62.6638 37.799 62.3221 37.4391 61.589C37.3049 60.6332 37.3505 59.8972 37.8297 59.0499C37.6847 59.0097 37.5397 58.9694 37.3903 58.9279C36.6527 58.5591 36.4304 58.2309 36.0719 57.4874C35.9489 56.5107 35.9078 55.7805 36.4625 54.9484C36.3054 54.7631 36.1483 54.5778 35.9865 54.3869C35.2909 53.5664 35.2203 52.998 35.2388 51.9287C35.3184 51.1679 35.5391 50.8067 36.0719 50.2609C36.6406 49.9477 37.2199 49.7011 37.8297 49.4796C37.7894 49.2822 37.7492 49.0849 37.7077 48.8815C37.6261 48.0246 37.6883 47.5359 38.025 46.7453C38.5342 46.1808 39.0556 45.8158 39.7829 45.5734C40.2004 45.5571 40.6185 45.5524 41.0364 45.5543C41.4036 45.5553 41.4036 45.5553 41.7783 45.5562C42.1622 45.5587 42.1622 45.5587 42.5538 45.5612C42.8146 45.5622 43.0754 45.563 43.3362 45.5638C43.9747 45.5662 44.6131 45.5694 45.2516 45.5734C45.2516 44.9289 45.2516 44.2843 45.2516 43.6203C45.0864 43.5759 44.9213 43.5316 44.7511 43.486C43.1997 42.8936 42.3283 41.9472 41.5407 40.4953C40.9217 38.9479 40.9712 37.3582 41.5597 35.8123C42.1835 34.4137 43.2526 33.331 44.5924 32.5973C45.154 32.4643 45.6532 32.4482 46.2282 32.4874ZM43.6914 35.0174C42.8134 35.9107 42.4759 36.7821 42.4074 38.0294C42.465 39.3707 42.9049 40.4971 43.8653 41.4497C44.6551 42.0757 45.2337 42.3122 46.2282 42.6437C46.2926 43.6105 46.3571 44.5773 46.4235 45.5734C47.7125 45.5734 49.0016 45.5734 50.3297 45.5734C50.3176 45.1464 50.3056 44.7194 50.2931 44.2794C50.3802 42.9659 50.3802 42.9659 50.9752 42.4446C51.354 42.2582 51.7381 42.0823 52.1265 41.9166C53.1935 41.43 53.766 40.5775 54.2116 39.5187C54.5904 38.3462 54.5154 37.3258 54.0498 36.1969C53.4628 35.0797 52.8728 34.5203 51.6969 34.0499C51.6969 35.4679 51.6969 36.8859 51.6969 38.3468C51.3747 38.4757 51.0524 38.6046 50.7204 38.7374C50.2837 38.9881 49.8553 39.2492 49.4272 39.5141C48.6023 39.869 47.9748 39.7689 47.1277 39.5164C45.7149 38.8237 45.7149 38.8237 45.2516 38.1515C44.879 36.8293 44.9699 35.4086 45.0563 34.0499C44.5575 34.0499 44.0401 34.7044 43.6914 35.0174ZM39.3195 47.3984C38.9464 47.9025 38.9464 47.9025 39.0138 48.5275C39.2039 49.1104 39.3093 49.3063 39.7829 49.6749C40.2187 49.7741 40.2187 49.7741 40.71 49.7773C40.8976 49.7851 41.0853 49.7929 41.2786 49.8009C41.4806 49.8064 41.6827 49.8119 41.8909 49.8176C42.0981 49.8255 42.3054 49.8333 42.5189 49.8414C43.1815 49.8658 43.8442 49.8864 44.507 49.9069C44.956 49.9228 45.405 49.9389 45.8539 49.9553C46.9552 49.995 48.0564 50.0315 49.1579 50.0656C49.2104 50.2533 49.263 50.4411 49.3172 50.6345C49.3867 50.8808 49.4562 51.1271 49.5279 51.3809C49.5966 51.625 49.6653 51.8692 49.736 52.1207C50.3702 54.2418 51.708 55.7536 53.4547 57.0968C53.3903 57.3546 53.3258 57.6124 53.2594 57.8781C52.3317 57.7072 52.3317 57.7072 51.8922 57.4874C51.8922 60.0011 51.8922 62.5148 51.8922 65.1046C53.39 64.8235 53.39 64.8235 54.5778 64.1769C54.7251 64.0744 54.8723 63.972 55.0241 63.8664C55.4604 63.5286 55.4604 63.5286 55.8351 62.8952C56.3844 62.3703 56.3844 62.3703 59.1188 62.1749C59.1188 59.2101 59.1188 56.2453 59.1188 53.1906C58.4743 53.1261 57.8297 53.0617 57.1657 52.9953C57.1229 52.8465 57.0801 52.6977 57.036 52.5444C56.3327 50.2544 55.3906 48.6463 53.2391 47.5036C51.8044 46.8635 50.4826 46.8239 48.9274 46.8299C48.665 46.8289 48.4025 46.8277 48.1401 46.8263C47.5941 46.8243 47.0482 46.8251 46.5023 46.828C45.8034 46.8314 45.1048 46.8267 44.406 46.8199C43.8658 46.8156 43.3257 46.8159 42.7854 46.8175C42.4029 46.8177 42.0203 46.8138 41.6378 46.8099C41.4056 46.8123 41.1734 46.8148 40.9342 46.8173C40.6282 46.8176 40.6282 46.8176 40.316 46.8179C39.7419 46.9008 39.7419 46.9008 39.3195 47.3984ZM36.6579 51.6281C36.4291 52.1866 36.4291 52.1866 36.4625 52.7999C36.7303 53.3483 36.7303 53.3483 37.2438 53.7765C37.8397 53.8842 38.331 53.9311 38.9284 53.9352C39.0908 53.9397 39.2532 53.9442 39.4206 53.9488C39.932 53.9613 40.4432 53.9667 40.9547 53.9718C41.2853 53.9792 41.6159 53.9869 41.9465 53.9947C42.2588 53.9998 42.5711 54.0044 42.8834 54.0084C43.0284 54.011 43.1733 54.0136 43.3226 54.0163C44.1176 54.0173 44.7391 53.9534 45.4469 53.5812C45.9055 53.2039 45.9055 53.2039 45.9108 52.5314C45.8948 51.8362 45.8948 51.8362 45.5495 51.3946C44.8282 50.8791 44.2076 50.9334 43.3412 50.9452C43.1751 50.945 43.009 50.9447 42.8378 50.9444C42.4872 50.9447 42.1365 50.947 41.7859 50.951C41.2495 50.9567 40.7136 50.955 40.1773 50.9525C39.8363 50.9537 39.4952 50.9553 39.1542 50.9574C38.9941 50.9569 38.8339 50.9563 38.6689 50.9557C37.8269 50.9696 37.2449 50.9871 36.6579 51.6281ZM46.8141 51.0421C46.8786 51.2355 46.943 51.4289 47.0094 51.6281C47.0351 52.4101 47.0421 53.0517 46.8629 53.8131C46.7527 54.3944 46.7527 54.3944 47.1803 54.8996C47.3173 55.0446 47.4542 55.1896 47.5954 55.339C48.0441 56.2366 47.8387 57.5211 47.5954 58.464C47.7525 58.5808 47.9096 58.6977 48.0714 58.818C48.6153 59.2823 48.7432 59.5329 48.8 60.2386C48.8074 61.1041 48.7832 61.7777 48.3766 62.5656C48.5015 62.6905 48.6264 62.8153 48.755 62.944C49.2798 63.7233 49.3943 64.3675 49.3532 65.2999C49.1107 66.0275 48.9113 66.3619 48.3034 66.8258C47.8011 67.053 47.3583 67.1753 46.8141 67.2531C46.7193 68.3866 46.7193 68.3866 47.1803 69.3893C47.8107 70.0011 48.269 70.0649 49.1502 70.0569C49.8245 69.9393 50.1231 69.5347 50.525 69.0109C50.7319 68.3903 50.7526 67.9302 50.7642 67.2778C50.7686 67.0417 50.773 66.8056 50.7776 66.5624C50.7914 65.4797 50.8027 64.3971 50.8102 63.3144C50.8145 62.7443 50.8227 62.1744 50.8342 61.6044C50.8482 60.9135 50.8553 60.2229 50.8577 59.5318C50.8607 59.1439 50.8704 58.756 50.8803 58.3681C50.8764 56.607 50.4632 55.7024 49.3532 54.3624C49.0625 53.7361 49.0625 53.7361 48.9015 53.2272C48.8459 53.0567 48.7902 52.8863 48.7329 52.7107C48.6798 52.5468 48.6266 52.3829 48.5719 52.214C48.361 51.5778 48.361 51.5778 47.986 51.0421C47.5954 51.0342 47.2046 51.0338 46.8141 51.0421ZM60.486 51.8234C60.4724 53.3446 60.462 54.8657 60.4556 56.387C60.4526 57.0933 60.4484 57.7996 60.4418 58.5059C60.4354 59.1872 60.4319 59.8685 60.4304 60.5498C60.4288 60.9369 60.4242 61.3241 60.4196 61.7112C60.4195 61.9458 60.4195 62.1803 60.4195 62.422C60.4182 62.6294 60.4169 62.8367 60.4155 63.0503C60.4388 63.2126 60.462 63.3749 60.486 63.5421C61.0774 63.9364 61.1971 63.9824 61.8611 63.9895C62.0189 63.992 62.1766 63.9945 62.3392 63.9971C62.5937 63.9977 62.5937 63.9977 62.8534 63.9984C63.0284 63.9997 63.2035 64.001 63.3839 64.0023C63.7541 64.0043 64.1243 64.0052 64.4945 64.0051C65.0608 64.006 65.6269 64.0131 66.1931 64.0205C66.5529 64.0216 66.9126 64.0224 67.2723 64.0228C67.4416 64.0256 67.6109 64.0284 67.7853 64.0313C67.9437 64.0301 68.1021 64.0289 68.2652 64.0277C68.4734 64.0285 68.4734 64.0285 68.6857 64.0293C69.2691 63.8864 69.5 63.624 69.861 63.1515C69.9759 62.6374 69.9759 62.6374 69.9559 62.0681C69.9571 61.8511 69.9583 61.634 69.9595 61.4104C69.9567 61.1771 69.9539 60.9437 69.951 60.7032C69.9508 60.463 69.9506 60.2227 69.9505 59.9751C69.9493 59.4673 69.9462 58.9595 69.9414 58.4518C69.9342 57.6728 69.9334 56.8942 69.9335 56.1153C69.9315 55.6223 69.9293 55.1293 69.9266 54.6363C69.9262 54.4026 69.9257 54.1688 69.9253 53.9279C69.9228 53.7115 69.9203 53.4951 69.9177 53.2722C69.9162 53.0815 69.9147 52.8909 69.9132 52.6944C69.893 52.1643 69.893 52.1643 69.4704 51.6281C68.7085 51.3741 67.9825 51.401 67.1884 51.4C66.9388 51.399 66.9388 51.399 66.6842 51.398C66.3324 51.397 65.9805 51.3965 65.6287 51.3966C65.0908 51.3961 64.5529 51.3926 64.015 51.3889C63.673 51.3883 63.3311 51.3879 62.9892 51.3877C62.8284 51.3863 62.6677 51.3849 62.5021 51.3835C61.7148 51.3866 61.1704 51.4384 60.486 51.8234ZM37.4391 55.7296C37.2104 56.2881 37.2104 56.2881 37.2438 56.9015C37.654 57.5608 37.8692 57.8261 38.611 58.0734C39.133 58.0993 39.6497 58.1148 40.172 58.1199C40.4013 58.1223 40.4013 58.1223 40.6353 58.1247C40.9588 58.1274 41.2822 58.1295 41.6056 58.131C42.0991 58.1344 42.5922 58.143 43.0856 58.1516C43.4002 58.1536 43.7148 58.1552 44.0294 58.1565C44.1763 58.16 44.3232 58.1634 44.4746 58.1669C45.1885 58.164 45.6085 58.0938 46.2237 57.7203C46.6802 57.3027 46.6802 57.3027 46.7409 56.6085C46.6799 55.9155 46.6799 55.9155 46.2286 55.4977C45.4449 55.0246 44.849 55.0341 43.9508 55.0468C43.7893 55.0465 43.6278 55.0462 43.4614 55.0459C43.1211 55.0463 42.7808 55.0485 42.4405 55.0526C41.9201 55.0582 41.4 55.0566 40.8796 55.0541C40.5483 55.0553 40.2171 55.0569 39.8858 55.059C39.653 55.0581 39.653 55.0581 39.4154 55.0573C38.5826 55.0715 38.0212 55.1007 37.4391 55.7296ZM38.8063 60.0265C38.5802 60.3936 38.5802 60.3936 38.611 60.8078C38.9314 61.4807 39.1549 61.7563 39.7829 62.1749C40.2983 62.2132 40.7926 62.2297 41.308 62.2268C41.457 62.2272 41.6061 62.2276 41.7596 62.228C42.0747 62.2282 42.3897 62.2275 42.7048 62.2259C43.1862 62.2238 43.6674 62.2259 44.1488 62.2284C44.4551 62.2281 44.7614 62.2276 45.0677 62.2268C45.2114 62.2276 45.355 62.2284 45.5031 62.2292C46.2277 62.2226 46.7936 62.2038 47.4 61.7843C47.7302 61.3284 47.7926 61.0788 47.7785 60.5148C47.5257 59.8407 47.2246 59.6321 46.6188 59.2453C46.0732 59.169 45.6067 59.1354 45.0624 59.1415C44.9144 59.1408 44.7663 59.14 44.6138 59.1392C44.3019 59.1387 43.99 59.1401 43.6781 59.1434C43.2022 59.1476 42.7269 59.1434 42.251 59.1384C41.9471 59.139 41.6432 59.14 41.3392 59.1415C41.1271 59.1391 41.1271 59.1391 40.9107 59.1367C39.961 59.1542 39.4733 59.352 38.8063 60.0265ZM40.3688 63.9328C40.1585 64.4794 40.135 64.7745 40.2955 65.3366C40.6589 65.8155 40.9698 65.8976 41.5407 66.0812C42.4505 66.1629 43.3619 66.1445 44.275 66.1422C44.6474 66.147 44.6474 66.147 45.0273 66.1518C45.2665 66.1519 45.5057 66.152 45.7521 66.1522C45.9699 66.1527 46.1877 66.1533 46.412 66.1539C47.1368 66.0657 47.6612 65.8201 48.1813 65.2999C48.2648 64.4855 48.2648 64.4855 47.9249 63.7741C46.97 63.1021 45.7135 63.3031 44.5989 63.2999C44.2045 63.298 43.8103 63.2919 43.416 63.2858C43.1662 63.2848 42.9165 63.2838 42.6591 63.2827C42.4307 63.2809 42.2022 63.2791 41.9669 63.2772C41.2803 63.3541 40.9149 63.516 40.3688 63.9328Z" fill="#18315C"/>
<path d="M66.1524 10.4238C68.8225 12.4757 70.6727 15.4804 71.1115 18.8291C71.475 22.4807 70.6853 25.7763 68.3764 28.6375C66.2638 31.0253 63.4568 32.8779 60.2056 33.1067C56.5993 33.2894 53.4046 32.812 50.5875 30.3603C47.9018 27.9257 46.275 25.0521 45.9711 21.3911C45.8203 17.9193 46.8767 14.7031 49.219 12.1015C53.7579 7.29254 60.7512 6.77396 66.1524 10.4238ZM50.8936 12.3251C48.8067 14.2499 47.5026 16.8582 47.3338 19.6943C47.2251 22.9652 48.1443 25.791 50.2787 28.3239C52.4767 30.5751 55.3588 31.8591 58.4963 31.9868C61.8298 31.8854 64.6181 30.567 66.9314 28.1904C68.96 25.972 70.0146 23.0887 69.9282 20.0826C69.5908 16.6584 68.1362 13.844 65.4978 11.5888C60.9466 8.1662 55.1248 8.78216 50.8936 12.3251Z" fill="#18315C"/>
<path d="M58.5332 10.417C59.0166 10.5137 59.0166 10.5137 59.5098 10.6123C59.5098 13.1904 59.5098 15.7686 59.5098 18.4248C60.7344 18.1025 61.959 17.7803 63.2207 17.4482C63.6719 17.4482 64.123 17.4482 64.5879 17.4482C64.7862 17.9626 64.798 18.1874 64.6126 18.7155C64.5214 18.8975 64.4301 19.0795 64.3361 19.2671C64.2339 19.4746 64.1317 19.6821 64.0264 19.8958C63.9136 20.1194 63.8008 20.3429 63.6846 20.5732C63.4491 21.0483 63.2152 21.5242 62.9811 21.9999C62.8902 22.1838 62.8902 22.1838 62.7975 22.3714C62.0212 23.9458 61.2942 25.5431 60.5652 27.1399C60.0008 28.367 59.4084 29.562 58.7285 30.7295C58.4031 30.7378 58.0774 30.7374 57.752 30.7295C57.5566 30.5342 57.5566 30.5342 57.5493 29.879C57.5562 29.5874 57.5644 29.2959 57.5734 29.0045C57.5776 28.8505 57.5817 28.6966 57.586 28.538C57.5951 28.2114 57.6046 27.8848 57.6146 27.5583C57.6298 27.0594 57.6429 26.5604 57.6558 26.0614C57.6649 25.7444 57.674 25.4274 57.6833 25.1104C57.6872 24.9613 57.691 24.8121 57.695 24.6585C57.7166 23.9902 57.7414 23.3614 57.9473 22.7217C57.8094 22.7592 57.6715 22.7968 57.5294 22.8355C56.9044 23.0039 56.2784 23.168 55.6523 23.332C55.3268 23.4208 55.3268 23.4208 54.9947 23.5113C54.7857 23.5655 54.5768 23.6196 54.3615 23.6754C54.1692 23.7265 53.9769 23.7776 53.7788 23.8303C53.1966 23.9012 52.963 23.8176 52.4785 23.5029C52.5879 22.5314 52.9085 21.7496 53.3437 20.886C53.4114 20.7485 53.479 20.611 53.5488 20.4692C53.7685 20.0231 53.9902 19.578 54.2119 19.1328C54.5157 18.5175 54.8182 17.9017 55.1206 17.2857C55.1956 17.1331 55.2707 16.9805 55.348 16.8232C56.1023 15.2842 56.8154 13.7277 57.5127 12.1619C57.6307 11.899 57.6307 11.899 57.7512 11.6308C57.818 11.48 57.8848 11.3292 57.9537 11.1738C58.1426 10.8076 58.1426 10.8076 58.5332 10.417ZM57.9473 14.3232C57.8755 14.4787 57.8037 14.6341 57.7297 14.7943C57.4587 15.3804 57.1875 15.9665 56.9161 16.5525C56.7995 16.8043 56.683 17.0562 56.5667 17.3081C56.3977 17.6739 56.2285 18.0395 56.059 18.405C56.0038 18.5241 55.9486 18.6431 55.8917 18.7658C55.4806 19.6479 55.048 20.5171 54.5985 21.3801C54.4046 21.7374 54.4046 21.7374 54.4316 22.1357C54.5595 22.1121 54.6874 22.0884 54.8192 22.064C55.0866 22.0149 55.0866 22.0149 55.3594 21.9648C55.6177 21.9173 55.6177 21.9173 55.8812 21.8687C56.8941 21.6896 57.9092 21.5236 58.9238 21.3545C58.9883 23.0947 59.0527 24.835 59.1191 26.6279C59.6127 25.9699 59.9441 25.4052 60.2971 24.6718C60.4622 24.3292 60.4622 24.3292 60.6305 23.9798C60.6871 23.8612 60.7436 23.7427 60.8019 23.6205C60.973 23.2621 61.1458 22.9045 61.3187 22.547C61.8769 21.3833 62.4055 20.2299 62.8301 19.0107C62.7218 19.0354 62.6134 19.0601 62.5018 19.0856C62.0094 19.1967 61.5165 19.3052 61.0234 19.4136C60.853 19.4525 60.6825 19.4914 60.5069 19.5314C60.342 19.5673 60.1771 19.6032 60.0072 19.6402C59.8558 19.6739 59.7044 19.7077 59.5485 19.7424C59.1191 19.792 59.1191 19.792 58.3379 19.5967C58.2734 17.8564 58.209 16.1162 58.1426 14.3232C58.0781 14.3232 58.0137 14.3232 57.9473 14.3232Z" fill="#18315C"/>
</svg>
