<svg width="41" height="40" viewBox="0 0 41 40" fill="none" xmlns="http://www.w3.org/2000/svg">
<path d="M33.7439 31.1624C35.539 29.0025 36.7876 26.4421 37.3839 23.6976C37.9802 20.9532 37.9067 18.1055 37.1697 15.3954C36.4327 12.6854 35.0538 10.1927 33.1497 8.12824C31.2456 6.0638 28.8722 4.48833 26.2305 3.53512C23.5887 2.58191 20.7562 2.27899 17.9726 2.65199C15.189 3.02499 12.5361 4.06294 10.2385 5.67802C7.94089 7.29311 6.06605 9.43782 4.77261 11.9307C3.47916 14.4236 2.80516 17.1914 2.80762 19.9999C2.80857 24.0826 4.24731 28.0346 6.87137 31.1624L6.84637 31.1836C6.93387 31.2886 7.03387 31.3786 7.12387 31.4824C7.23637 31.6111 7.35762 31.7324 7.47387 31.8574C7.82387 32.2374 8.18387 32.6024 8.56137 32.9449C8.67637 33.0499 8.79512 33.1474 8.91137 33.2474C9.31137 33.5924 9.72262 33.9199 10.1489 34.2249C10.2039 34.2624 10.2539 34.3111 10.3089 34.3499V34.3349C13.2365 36.3951 16.729 37.5008 20.3089 37.5008C23.8887 37.5008 27.3812 36.3951 30.3089 34.3349V34.3499C30.3639 34.3111 30.4126 34.2624 30.4689 34.2249C30.8939 33.9186 31.3064 33.5924 31.7064 33.2474C31.8226 33.1474 31.9414 33.0486 32.0564 32.9449C32.4339 32.6011 32.7939 32.2374 33.1439 31.8574C33.2601 31.7324 33.3801 31.6111 33.4939 31.4824C33.5826 31.3786 33.6839 31.2886 33.7714 31.1824L33.7439 31.1624ZM20.3076 9.99989C21.4201 9.99989 22.5077 10.3298 23.4327 10.9479C24.3577 11.566 25.0787 12.4445 25.5044 13.4723C25.9302 14.5001 26.0416 15.6311 25.8245 16.7223C25.6075 17.8134 25.0718 18.8157 24.2851 19.6024C23.4984 20.389 22.4962 20.9248 21.405 21.1418C20.3139 21.3589 19.1829 21.2475 18.155 20.8217C17.1272 20.396 16.2487 19.675 15.6306 18.75C15.0125 17.8249 14.6826 16.7374 14.6826 15.6249C14.6826 14.133 15.2753 12.7023 16.3301 11.6474C17.385 10.5925 18.8158 9.99989 20.3076 9.99989ZM10.3164 31.1624C10.3381 29.5211 11.0051 27.9543 12.1731 26.8011C13.3411 25.6478 14.9162 25.0007 16.5576 24.9999H24.0576C25.6991 25.0007 27.2742 25.6478 28.4422 26.8011C29.6102 27.9543 30.2772 29.5211 30.2989 31.1624C27.5574 33.6328 23.9979 35 20.3076 35C16.6173 35 13.0578 33.6328 10.3164 31.1624Z" fill="#18315C"/>
</svg>
