<svg width="107" height="107" viewBox="0 0 107 107" fill="none" xmlns="http://www.w3.org/2000/svg">
<rect width="107" height="107" rx="53.5" fill="#18315C"/>
<g clip-path="url(#clip0_3184_2231)">
<g clip-path="url(#clip1_3184_2231)">
<g clip-path="url(#clip2_3184_2231)">
<path d="M53.5 30C44.3779 30 37 37.3555 37 46.45C37 58.7875 53.5 77 53.5 77C53.5 77 70 58.7875 70 46.45C70 37.3555 62.6221 30 53.5 30ZM53.5 52.325C51.9371 52.325 50.4382 51.706 49.3331 50.6043C48.228 49.5025 47.6071 48.0081 47.6071 46.45C47.6071 44.8919 48.228 43.3975 49.3331 42.2957C50.4382 41.194 51.9371 40.575 53.5 40.575C55.0629 40.575 56.5618 41.194 57.6669 42.2957C58.772 43.3975 59.3929 44.8919 59.3929 46.45C59.3929 48.0081 58.772 49.5025 57.6669 50.6043C56.5618 51.706 55.0629 52.325 53.5 52.325Z" fill="white"/>
</g>
</g>
</g>
<defs>
<clipPath id="clip0_3184_2231">
<rect width="33" height="47" fill="white" transform="translate(37 30)"/>
</clipPath>
<clipPath id="clip1_3184_2231">
<rect width="33" height="47" fill="white" transform="translate(37 30)"/>
</clipPath>
<clipPath id="clip2_3184_2231">
<rect width="33" height="47" fill="white" transform="translate(37 30)"/>
</clipPath>
</defs>
</svg>
