<svg width="24" height="24" viewBox="0 0 24 24" fill="none" xmlns="http://www.w3.org/2000/svg">
<path d="M19.8745 3.74927H4.12451C3.42855 3.75001 2.7613 4.02681 2.26918 4.51893C1.77706 5.01106 1.50026 5.6783 1.49951 6.37427V17.6243C1.50026 18.3202 1.77706 18.9875 2.26918 19.4796C2.7613 19.9717 3.42855 20.2485 4.12451 20.2493H19.8745C20.5705 20.2485 21.2377 19.9717 21.7298 19.4796C22.222 18.9875 22.4988 18.3202 22.4995 17.6243V6.37427C22.4988 5.6783 22.222 5.01106 21.7298 4.51893C21.2377 4.02681 20.5705 3.75001 19.8745 3.74927ZM19.2098 8.0913L12.4598 13.3413C12.3282 13.4436 12.1662 13.4992 11.9995 13.4992C11.8328 13.4992 11.6708 13.4436 11.5392 13.3413L4.7892 8.0913C4.70989 8.03141 4.64328 7.95636 4.59323 7.8705C4.54318 7.78464 4.5107 7.68969 4.49766 7.59117C4.48462 7.49265 4.4913 7.39252 4.51729 7.2966C4.54329 7.20068 4.58809 7.11089 4.64909 7.03243C4.71009 6.95398 4.78607 6.88843 4.87263 6.83959C4.95918 6.79076 5.05458 6.75961 5.15327 6.74796C5.25196 6.73631 5.35199 6.74439 5.44753 6.77174C5.54308 6.79908 5.63224 6.84514 5.70982 6.90724L11.9995 11.7991L18.2892 6.90724C18.4465 6.78847 18.6442 6.73637 18.8396 6.76223C19.0349 6.78808 19.2123 6.8898 19.3333 7.04539C19.4542 7.20098 19.5091 7.39793 19.486 7.59366C19.4629 7.78938 19.3637 7.96815 19.2098 8.0913Z" fill="#18315C"/>
</svg>
