<svg width="140" height="60" viewBox="0 0 140 60" fill="none" xmlns="http://www.w3.org/2000/svg">
<path d="M36.2683 0C26.6526 -9.16088e-07 17.4305 2.69055 10.6294 7.48013C3.82832 12.2697 0.00500036 18.7663 0 25.5415V60H103.732C113.351 60 122.576 57.3076 129.377 52.5152C136.179 47.7227 140 41.2227 140 34.4452V0H36.2683Z" fill="url(#paint0_linear_3165_12589)"/>
<path d="M67.6719 36L68.1558 36.1259L67.6719 36ZM63.9688 40.7969L64.1516 41.2623L64.1544 41.2611L63.9688 40.7969ZM56.5781 39.9375L56.2566 40.3206L56.2641 40.3266L56.5781 39.9375ZM54.2969 23.125L53.8145 22.9934L53.8135 22.9972L54.2969 23.125ZM55.75 20.0938L56.1363 20.4112L56.1384 20.4087L55.75 20.0938ZM58 18.4375L57.8238 17.9696L57.822 17.9703L58 18.4375ZM63.4062 18.2656L63.2644 18.7452L63.2724 18.7474L63.4062 18.2656ZM65.4062 19.2812L65.093 19.671L65.0973 19.6744L65.4062 19.2812ZM66.8906 21.125L66.4482 21.3582L66.4521 21.3653L66.8906 21.125ZM67.8438 23.9219L67.3533 24.019L67.8438 23.9219ZM65.0781 24.6406L64.5834 24.7132L64.5846 24.7207L65.0781 24.6406ZM63.6875 21.2969L63.3339 21.6505L63.3393 21.6557L63.6875 21.2969ZM62.4844 20.5469L62.3099 21.0157L62.323 21.0201L62.4844 20.5469ZM59.1406 20.6875L59.3536 21.14L59.3607 21.1365L59.1406 20.6875ZM57.7969 21.8906L57.3796 21.6151L57.376 21.6206L57.7969 21.8906ZM56.875 34.4531L56.3803 34.5257L56.3813 34.5321L56.875 34.4531ZM57.4219 36.4844L56.9606 36.6773L56.9619 36.6803L57.4219 36.4844ZM59.4844 38.6875L59.3005 39.1527L59.3135 39.1574L59.4844 38.6875ZM64.1875 37.2656L63.7635 37.0006L63.7622 37.0027L64.1875 37.2656ZM65 35.0312L65.4907 35.1271L65.4909 35.1261L65 35.0312ZM67.6719 27.8125V31.2812H68.6719V27.8125H67.6719ZM67.6719 31.2812C67.6719 33.1192 67.5073 34.6469 67.188 35.8741L68.1558 36.1259C68.5032 34.7906 68.6719 33.1725 68.6719 31.2812H67.6719ZM67.188 35.8741C66.8669 37.1083 66.4133 38.0697 65.8439 38.7814L66.6248 39.4061C67.3055 38.5553 67.8102 37.4542 68.1558 36.1259L67.188 35.8741ZM65.8439 38.7814C65.2702 39.4986 64.5842 40.0122 63.7831 40.3326L64.1544 41.2611C65.1241 40.8733 65.9486 40.2514 66.6248 39.4061L65.8439 38.7814ZM63.7859 40.3315C62.9784 40.6488 62.0523 40.8125 61 40.8125V41.8125C62.156 41.8125 63.2091 41.6325 64.1516 41.2623L63.7859 40.3315ZM61 40.8125C60.1667 40.8125 59.4078 40.7084 58.7199 40.5049L58.4363 41.4638C59.2276 41.6979 60.0833 41.8125 61 41.8125V40.8125ZM58.7199 40.5049C58.0424 40.3045 57.4344 39.986 56.8921 39.5484L56.2641 40.3266C56.9094 40.8473 57.6347 41.2267 58.4363 41.4638L58.7199 40.5049ZM56.8996 39.5545C56.3725 39.1122 55.9107 38.5298 55.5193 37.796L54.6369 38.2665C55.0789 39.0952 55.6171 39.7837 56.2567 40.3205L56.8996 39.5545ZM55.5193 37.796C55.1314 37.0686 54.8274 36.1702 54.6156 35.0912L53.6344 35.2838C53.8601 36.4339 54.1915 37.4314 54.6369 38.2665L55.5193 37.796ZM54.6156 35.0912C54.4047 34.0164 54.2969 32.7479 54.2969 31.2812H53.2969C53.2969 32.7938 53.4078 34.1295 53.6344 35.2838L54.6156 35.0912ZM54.2969 31.2812V27.8125H53.2969V31.2812H54.2969ZM54.2969 27.8125C54.2969 25.9742 54.4616 24.4579 54.7803 23.2528L53.8135 22.9972C53.4655 24.3129 53.2969 25.9216 53.2969 27.8125H54.2969ZM54.7793 23.2566C55.1102 22.043 55.5682 21.1024 56.1363 20.4112L55.3637 19.7763C54.6818 20.6059 54.171 21.6861 53.8145 22.9934L54.7793 23.2566ZM56.1384 20.4087C56.7113 19.702 57.3903 19.2048 58.178 18.9047L57.822 17.9703C56.8597 18.3368 56.0387 18.9438 55.3616 19.7788L56.1384 20.4087ZM58.1762 18.9054C58.9972 18.5963 59.9259 18.4375 60.9688 18.4375V17.4375C59.8241 17.4375 58.7736 17.612 57.8238 17.9696L58.1762 18.9054ZM60.9688 18.4375C61.8131 18.4375 62.5771 18.5418 63.2644 18.7451L63.5481 17.7862C62.7562 17.5519 61.8952 17.4375 60.9688 17.4375V18.4375ZM63.2724 18.7474C63.9597 18.9383 64.5648 19.2465 65.0931 19.671L65.7194 18.8915C65.0811 18.3785 64.3528 18.0096 63.5401 17.7839L63.2724 18.7474ZM65.0973 19.6744C65.6167 20.0824 66.0691 20.6387 66.4483 21.3581L67.333 20.8919C66.8996 20.0696 66.3625 19.3967 65.7152 18.8881L65.0973 19.6744ZM66.4521 21.3653C66.8382 22.0699 67.1417 22.9509 67.3533 24.019L68.3342 23.8247C68.1083 22.6845 67.7764 21.701 67.3291 20.8847L66.4521 21.3653ZM67.3533 24.019C67.564 25.0829 67.6719 26.3458 67.6719 27.8125H68.6719C68.6719 26.3001 68.561 24.9692 68.3342 23.8247L67.3533 24.019ZM65.7656 31.75V27.3281H64.7656V31.75H65.7656ZM65.7656 27.3281C65.7656 26.2881 65.702 25.3645 65.5717 24.5606L64.5846 24.7207C64.7042 25.4584 64.7656 26.3264 64.7656 27.3281H65.7656ZM65.5728 24.5681C65.454 23.7581 65.2734 23.0492 65.0243 22.4489L64.1007 22.8323C64.3099 23.3363 64.473 23.9606 64.5834 24.7132L65.5728 24.5681ZM65.0243 22.4489C64.7744 21.847 64.4479 21.3381 64.0357 20.9381L63.3393 21.6557C63.6354 21.9431 63.8922 22.3301 64.1007 22.8323L65.0243 22.4489ZM64.0411 20.9433C63.6434 20.5457 63.1767 20.2546 62.6457 20.0736L62.323 21.0201C62.7087 21.1516 63.0441 21.3605 63.3339 21.6504L64.0411 20.9433ZM62.6587 20.0783C62.1461 19.8875 61.5805 19.7969 60.9688 19.7969V20.7969C61.482 20.7969 61.9268 20.8729 62.31 21.0155L62.6587 20.0783ZM60.9688 19.7969C60.2173 19.7969 59.5306 19.9395 58.9205 20.2385L59.3607 21.1365C59.8132 20.9147 60.3452 20.7969 60.9688 20.7969V19.7969ZM58.9277 20.2351C58.3032 20.529 57.7882 20.9964 57.3796 21.6151L58.2141 22.1662C58.5347 21.6807 58.9155 21.346 59.3535 21.1399L58.9277 20.2351ZM57.376 21.6206C56.9788 22.2398 56.6904 23.0265 56.495 23.9601L57.4738 24.1649C57.6534 23.3068 57.9066 22.6456 58.2177 22.1606L57.376 21.6206ZM56.495 23.9601C56.2983 24.9 56.2031 26.025 56.2031 27.3281H57.2031C57.2031 26.0688 57.2955 25.0167 57.4738 24.1649L56.495 23.9601ZM56.2031 27.3281V31.75H57.2031V27.3281H56.2031ZM56.2031 31.75C56.2031 32.7885 56.2613 33.7146 56.3803 34.5257L57.3697 34.3806C57.2595 33.6291 57.2031 32.7532 57.2031 31.75H56.2031ZM56.3813 34.5321C56.5109 35.3424 56.7022 36.0594 56.9606 36.6773L57.8832 36.2915C57.6624 35.7635 57.4891 35.1264 57.3687 34.3741L56.3813 34.5321ZM56.9619 36.6803C57.2197 37.2856 57.541 37.8022 57.9331 38.218L58.6607 37.532C58.3652 37.2187 58.1033 36.8082 57.8819 36.2884L56.9619 36.6803ZM57.9331 38.218C58.3251 38.6337 58.7817 38.9473 59.3005 39.1525L59.6682 38.2225C59.2913 38.0735 58.9562 37.8454 58.6607 37.532L57.9331 38.218ZM59.3135 39.1574C59.8333 39.3464 60.3973 39.4375 61 39.4375V38.4375C60.4986 38.4375 60.0521 38.3619 59.6552 38.2176L59.3135 39.1574ZM61 39.4375C61.7725 39.4375 62.4728 39.2895 63.0865 38.9767L62.6323 38.0858C62.1834 38.3146 61.6441 38.4375 61 38.4375V39.4375ZM63.0865 38.9767C63.7094 38.6591 64.2169 38.169 64.6128 37.5285L63.7622 37.0027C63.4498 37.5081 63.0718 37.8617 62.6323 38.0858L63.0865 38.9767ZM64.6115 37.5306C65.0175 36.8811 65.3057 36.0741 65.4907 35.1271L64.5093 34.9354C64.3401 35.8009 64.0867 36.4835 63.7635 37.0006L64.6115 37.5306ZM65.4909 35.1261C65.6758 34.1693 65.7656 33.0421 65.7656 31.75H64.7656C64.7656 32.9996 64.6784 34.0599 64.5091 34.9364L65.4909 35.1261ZM81.3906 18.125H81.8906C81.8906 17.8489 81.6668 17.625 81.3906 17.625V18.125ZM81.3906 41V41.5C81.6668 41.5 81.8906 41.2761 81.8906 41H81.3906ZM78.5 41H78C78 41.2761 78.2239 41.5 78.5 41.5V41ZM78.5 21.7344H79C79 21.5712 78.9204 21.4183 78.7867 21.3247C78.653 21.2312 78.482 21.2087 78.3287 21.2646L78.5 21.7344ZM72.6719 23.8594H72.1719C72.1719 24.0226 72.2515 24.1755 72.3852 24.269C72.5189 24.3626 72.6898 24.385 72.8432 24.3291L72.6719 23.8594ZM72.6719 21.25L72.4951 20.7823C72.3006 20.8558 72.1719 21.0421 72.1719 21.25H72.6719ZM80.9375 18.125V17.625C80.8771 17.625 80.8172 17.6359 80.7607 17.6573L80.9375 18.125ZM80.8906 18.125V41H81.8906V18.125H80.8906ZM81.3906 40.5H78.5V41.5H81.3906V40.5ZM79 41V21.7344H78V41H79ZM78.3287 21.2646L72.5006 23.3896L72.8432 24.3291L78.6713 22.2041L78.3287 21.2646ZM73.1719 23.8594V21.25H72.1719V23.8594H73.1719ZM72.8487 21.7177L81.1143 18.5927L80.7607 17.6573L72.4951 20.7823L72.8487 21.7177ZM80.9375 18.625H81.3906V17.625H80.9375V18.625Z" fill="white"/>
<defs>
<linearGradient id="paint0_linear_3165_12589" x1="0" y1="30.0066" x2="139.981" y2="30.0066" gradientUnits="userSpaceOnUse">
<stop stop-color="#F12711"/>
<stop offset="1" stop-color="#F5AF19"/>
</linearGradient>
</defs>
</svg>
