<svg width="25" height="32" viewBox="0 0 25 32" fill="none" xmlns="http://www.w3.org/2000/svg">
<g clip-path="url(#clip0_3192_5889)">
<path d="M11.9765 4.05495C11.8456 4.00594 11.7048 3.98936 11.5661 4.00663C11.4274 4.0239 11.295 4.0745 11.1801 4.1541C11.0652 4.2337 10.9713 4.33995 10.9065 4.46374C10.8416 4.58753 10.8077 4.7252 10.8076 4.86495V18.8576C10.008 18.2175 9.01821 17.8615 7.99404 17.8457C6.96987 17.8299 5.96955 18.1553 5.15064 18.7706C4.33173 19.3858 3.74076 20.2561 3.4708 21.2441C3.20084 22.2322 3.26724 23.282 3.65954 24.2281C4.05183 25.1745 4.74774 25.9631 5.63765 26.4705C6.52755 26.9776 7.56088 27.1744 8.57492 27.0297C9.58893 26.8849 10.526 26.4071 11.2386 25.6713C11.9511 24.9354 12.3987 23.9835 12.5107 22.9654C12.529 22.8948 12.5383 22.8225 12.5384 22.7495V11.8827L20.6003 14.9057C20.7312 14.9547 20.872 14.9713 21.0107 14.954C21.1494 14.9368 21.2818 14.8862 21.3967 14.8066C21.5116 14.727 21.6054 14.6207 21.6703 14.4969C21.7352 14.3731 21.7691 14.2355 21.7692 14.0957V10.3261C21.7693 9.56254 21.5365 8.8171 21.1016 8.18946C20.6668 7.5618 20.0507 7.08188 19.3357 6.8138L11.9765 4.05495Z" fill="#18315C"/>
</g>
<defs>
<clipPath id="clip0_3192_5889">
<rect width="18.4615" height="24" fill="white" transform="translate(3.30762 4)"/>
</clipPath>
</defs>
</svg>
