<svg width="108" height="107" viewBox="0 0 108 107" fill="none" xmlns="http://www.w3.org/2000/svg">
<rect x="0.879883" width="107" height="107" rx="53.5" fill="#18315C"/>
<g clip-path="url(#clip0_3184_2213)">
<g clip-path="url(#clip1_3184_2213)">
<g clip-path="url(#clip2_3184_2213)">
<path d="M62.9857 74.4901L69.2346 70.8784C69.6773 70.6241 70.0653 70.2849 70.3765 69.8802C70.6876 69.4755 70.9158 69.0133 71.0478 68.5202C71.3171 67.5153 71.1766 66.4651 70.6579 65.5667L66.7728 58.8376C66.5185 58.3949 66.1793 58.0069 65.7746 57.6957C65.3699 57.3845 64.9077 57.1564 64.4146 57.0244C63.4097 56.7551 62.3595 56.8956 61.4611 57.4143L56.5405 60.2552C54.7817 58.8103 53.2986 57.0593 52.1628 55.0866C51.0185 53.1159 50.239 50.9549 49.8617 48.7075L54.7823 45.8666C55.2249 45.6123 55.613 45.2731 55.9241 44.8684C56.2353 44.4637 56.4634 44.0015 56.5954 43.5083C56.8647 42.5034 56.7242 41.4532 56.2055 40.5548L52.3263 33.8223C52.0715 33.379 51.7316 32.9905 51.3261 32.6792C50.9206 32.3678 50.4575 32.1396 49.9635 32.0079C48.9586 31.7386 47.9084 31.8791 47.01 32.3978L40.7682 36.0015C39.3309 36.8274 38.269 38.2156 37.8396 39.8179C37.7491 40.1559 37.69 40.4876 37.6599 40.822C37.0153 47.34 38.6767 54.4213 42.33 60.7558C45.9799 67.0844 51.2784 72.058 57.2603 74.7776C59.0885 75.605 61.2267 75.4979 62.9857 74.4901Z" fill="white"/>
</g>
</g>
</g>
<defs>
<clipPath id="clip0_3184_2213">
<rect width="34" height="44" fill="white" transform="translate(37.3799 31.5)"/>
</clipPath>
<clipPath id="clip1_3184_2213">
<rect width="34" height="44" fill="white" transform="translate(37.3799 31.5)"/>
</clipPath>
<clipPath id="clip2_3184_2213">
<rect width="34" height="44" fill="white" transform="translate(37.3799 31.5)"/>
</clipPath>
</defs>
</svg>
