<svg width="385" height="438" viewBox="0 0 385 438" fill="none" xmlns="http://www.w3.org/2000/svg">
<path d="M198.419 188.567C246.28 188.567 285.08 149.733 285.08 101.829C285.08 53.9244 246.28 15.0903 198.419 15.0903C150.557 15.0903 111.758 53.9244 111.758 101.829C111.758 149.733 150.557 188.567 198.419 188.567Z" fill="#00CBF3"/>
<path d="M99.0598 387.379C79.4677 387.379 60.3155 381.564 44.0252 370.669C27.7349 359.775 15.0381 344.29 7.54052 326.173C0.0429212 308.056 -1.91879 288.12 1.90345 268.888C5.72569 249.655 15.1602 231.988 29.014 218.122C42.8677 204.256 60.5185 194.813 79.7342 190.987C98.9499 187.162 118.868 189.125 136.968 196.629C155.069 204.134 170.54 216.842 181.425 233.147C192.31 249.451 198.12 268.621 198.12 288.23C198.088 314.517 187.641 339.717 169.071 358.304C150.5 376.891 125.322 387.347 99.0598 387.379ZM99.0598 201.073C81.8324 201.073 64.9919 206.186 50.6679 215.766C36.3438 225.345 25.1795 238.961 18.5869 254.892C11.9943 270.822 10.2693 288.351 13.6302 305.263C16.9911 322.174 25.2869 337.708 37.4685 349.901C49.6501 362.093 65.1704 370.396 82.0668 373.76C98.9632 377.124 116.477 375.398 132.393 368.799C148.309 362.201 161.913 351.027 171.484 336.69C181.055 322.353 186.163 305.497 186.163 288.254C186.138 265.14 176.953 242.98 160.623 226.636C144.294 210.292 122.153 201.099 99.0598 201.073Z" fill="#00CBF3"/>
<path d="M261.226 372.132C309.088 372.132 347.887 333.298 347.887 285.394C347.887 237.489 309.088 198.655 261.226 198.655C213.365 198.655 174.565 237.489 174.565 285.394C174.565 333.298 213.365 372.132 261.226 372.132Z" fill="#FFD3F5"/>
<path d="M285.582 284.461C265.99 284.461 246.837 278.646 230.547 267.751C214.257 256.857 201.56 241.372 194.063 223.255C186.565 205.138 184.603 185.202 188.425 165.97C192.248 146.737 201.682 129.07 215.536 115.204C229.39 101.338 247.04 91.8949 266.256 88.0692C285.472 84.2436 305.39 86.207 323.49 93.7113C341.591 101.216 357.062 113.924 367.947 130.229C378.832 146.533 384.642 165.703 384.642 185.312C384.594 211.594 374.142 236.785 355.575 255.369C337.008 273.952 311.84 284.413 285.582 284.461ZM285.582 98.1313C268.354 98.1313 251.514 103.244 237.19 112.824C222.866 122.404 211.702 136.019 205.109 151.95C198.516 167.88 196.791 185.409 200.152 202.321C203.513 219.232 211.809 234.766 223.99 246.959C236.172 259.151 251.692 267.455 268.589 270.818C285.485 274.182 302.999 272.456 318.915 265.857C334.831 259.259 348.435 248.085 358.006 233.748C367.577 219.411 372.685 202.555 372.685 185.312C372.66 162.198 363.475 140.038 347.145 123.694C330.816 107.35 308.675 98.1567 285.582 98.1313Z" fill="#00CBF3"/>
<path d="M112.93 194.527L117.844 188.998C153.394 186.134 178.324 180.509 192.632 172.124C206.94 163.739 214.09 153.001 214.082 139.909V139.298C214.082 128.671 210.096 120.39 202.125 114.454C194.154 108.519 182.815 105.551 168.109 105.551C153.761 105.551 138.843 109.029 123.356 115.986C106.928 123.527 91.8179 133.661 78.6024 146L17.3013 65.0059C36.704 45.7787 59.3205 30.1003 84.1263 18.6809C109.873 6.62588 140.521 0.594404 176.072 0.586426C198.55 0.586426 219.191 3.5503 237.995 9.47806C256.798 15.4058 272.94 23.8946 286.419 34.9443C299.84 45.9079 310.631 59.7471 317.996 75.4413C325.552 91.3976 329.331 109.396 329.331 129.437V130.634C329.331 149.861 326.266 166.532 320.136 180.645C314.324 194.301 305.779 206.622 295.027 216.846C283.934 227.199 271.182 235.613 257.305 241.738C242.01 248.558 226.099 253.9 209.789 257.69L202.436 296.966H128.306L112.93 194.527ZM103.125 332.581H224.508V436.887H103.125V332.581Z" fill="#27007F"/>
<path d="M224.508 437.485H103.125C102.967 437.485 102.815 437.422 102.702 437.31C102.59 437.198 102.527 437.046 102.527 436.887V332.581C102.527 332.422 102.59 332.27 102.702 332.158C102.815 332.046 102.967 331.982 103.125 331.982H224.508C224.666 331.982 224.818 332.046 224.931 332.158C225.043 332.27 225.106 332.422 225.106 332.581V436.887C225.103 437.045 225.039 437.195 224.927 437.307C224.816 437.418 224.665 437.482 224.508 437.485ZM103.747 436.289H223.91V333.179H103.723L103.747 436.289ZM202.46 297.589H128.33C128.186 297.59 128.047 297.538 127.939 297.443C127.831 297.348 127.761 297.217 127.744 297.074L112.415 194.611C112.402 194.523 112.407 194.434 112.432 194.349C112.457 194.265 112.5 194.186 112.559 194.12L117.461 188.603C117.565 188.486 117.711 188.413 117.868 188.4C153.151 185.564 178.224 179.915 192.393 171.646C206.561 163.376 213.556 152.75 213.556 139.945V139.334C213.556 128.959 209.622 120.749 201.838 114.969C194.055 109.189 182.708 106.185 168.181 106.185C154.024 106.185 139.055 109.68 123.666 116.573C107.303 124.098 92.2508 134.199 79.0806 146.491C79.0221 146.55 78.9506 146.595 78.8717 146.622C78.7929 146.649 78.7089 146.657 78.6263 146.646C78.5415 146.64 78.459 146.615 78.3847 146.574C78.3104 146.533 78.2459 146.476 78.1958 146.407L16.8947 65.4128C16.8076 65.2984 16.7656 65.1559 16.7766 65.0125C16.7877 64.869 16.851 64.7347 16.9545 64.6349C36.4073 45.3766 59.0653 29.6598 83.911 18.1902C109.594 6.13918 140.609 0 176.072 0C198.49 0 219.378 3.00377 238.174 8.92754C256.97 14.8513 273.326 23.5036 286.777 34.5254C300.247 45.557 311.088 59.4575 318.51 75.2139C326.066 91.1782 329.905 109.428 329.905 129.461V130.658C329.905 149.877 326.796 166.787 320.662 180.92C314.803 194.649 306.202 207.033 295.386 217.313C284.239 227.683 271.441 236.12 257.52 242.276C242.298 249.057 226.474 254.394 210.256 258.217L203.082 297.098C203.058 297.247 202.978 297.382 202.857 297.473C202.737 297.565 202.586 297.606 202.436 297.589H202.46ZM128.796 296.392H201.886L209.156 257.606C209.177 257.492 209.231 257.387 209.312 257.304C209.393 257.221 209.497 257.164 209.61 257.139C225.875 253.343 241.744 248.014 257.006 241.223C270.806 235.122 283.494 226.762 294.549 216.487C305.238 206.309 313.741 194.056 319.538 180.478C325.612 166.512 328.685 149.77 328.685 130.706V129.509C328.685 109.656 324.895 91.5731 317.398 75.7644C310.06 60.1612 299.328 46.3981 285.988 35.4828C272.645 24.5448 256.408 16.0121 237.768 10.1243C219.127 4.23639 198.359 1.19672 176.072 1.19672C140.788 1.19672 109.94 7.2641 84.3773 19.2433C59.8009 30.5718 37.3731 46.0796 18.0904 65.0777L78.7339 145.162C91.8833 132.968 106.879 122.935 123.164 115.436C138.708 108.483 153.833 104.952 168.157 104.952C182.923 104.952 194.461 107.992 202.532 113.976C210.602 119.959 214.727 128.516 214.727 139.298V139.909C214.727 153.168 207.41 164.19 192.978 172.639C178.547 181.088 153.462 186.689 118.19 189.573L113.623 194.707L128.796 296.392Z" fill="#27007F"/>
<path d="M102.049 194.527L106.952 188.998C142.51 186.134 167.44 180.509 181.74 172.124C196.04 163.739 203.214 153.001 203.261 139.909V139.298C203.261 128.671 199.276 120.39 191.305 114.454C183.334 108.519 171.991 105.551 157.277 105.551C142.929 105.551 128.011 109.029 112.523 115.986C97.0357 122.943 82.102 132.948 67.7222 146L6.40918 65.0059C25.818 45.7984 48.4338 30.1367 73.2342 18.7287C98.9806 6.67373 129.633 0.642255 165.192 0.634277C187.662 0.634277 208.299 3.59816 227.103 9.52592C245.906 15.4537 262.048 23.9424 275.527 34.9921C288.948 45.9557 299.739 59.795 307.104 75.4892C314.66 91.4455 318.443 109.444 318.45 129.485V130.682C318.45 149.909 315.382 166.58 309.244 180.693C303.44 194.354 294.894 206.676 284.135 216.894C273.038 227.229 260.287 235.627 246.412 241.738C231.121 248.556 215.215 253.898 198.909 257.69L191.544 296.966H117.414L102.049 194.527ZM92.245 332.581H213.616V436.887H92.245V332.581Z" fill="#CC0000"/>
<path d="M213.616 437.485H92.2331C92.0755 437.482 91.9251 437.418 91.8137 437.307C91.7022 437.195 91.6383 437.045 91.6352 436.887V332.581C91.6352 332.422 91.6982 332.27 91.8103 332.158C91.9224 332.046 92.0745 331.982 92.2331 331.982H213.616C213.774 331.982 213.926 332.046 214.038 332.158C214.15 332.27 214.213 332.422 214.213 332.581V436.887C214.213 437.046 214.15 437.198 214.038 437.31C213.926 437.422 213.774 437.485 213.616 437.485ZM92.8548 436.289H213.018V333.179H92.8309L92.8548 436.289ZM191.568 297.589H117.437C117.293 297.588 117.154 297.535 117.044 297.441C116.935 297.347 116.862 297.217 116.84 297.074L101.452 194.611C101.441 194.524 101.448 194.435 101.473 194.351C101.497 194.266 101.539 194.188 101.595 194.12L106.509 188.603C106.558 188.544 106.618 188.496 106.685 188.461C106.753 188.426 106.828 188.405 106.904 188.4C142.187 185.564 167.26 179.915 181.441 171.646C195.621 163.376 202.604 152.75 202.604 139.945V139.334C202.604 128.959 198.658 120.749 190.886 114.969C183.115 109.189 171.756 106.185 157.217 106.185C143.072 106.185 128.091 109.68 112.715 116.573C96.3474 124.097 81.2905 134.198 68.1167 146.491C68.0582 146.55 67.9867 146.595 67.9079 146.622C67.829 146.649 67.745 146.657 67.6624 146.646C67.579 146.641 67.4981 146.616 67.4256 146.575C67.3531 146.533 67.291 146.476 67.2439 146.407L5.94282 65.4128C5.84785 65.3055 5.79541 65.1672 5.79541 65.0238C5.79541 64.8805 5.84785 64.7422 5.94282 64.6349C25.3986 45.3802 48.0559 29.6638 72.8993 18.1902C98.7015 6.13918 129.729 0 165.192 0C187.598 0 208.486 3.00377 227.282 8.92754C246.078 14.8513 262.434 23.4677 275.909 34.4895C289.386 45.5143 300.228 59.4165 307.642 75.178C315.21 91.1423 319.048 109.392 319.048 129.425V130.622C319.048 149.841 315.928 166.751 309.794 180.884C303.935 194.61 295.338 206.993 284.53 217.277C273.38 227.645 260.583 236.081 246.663 242.24C231.447 249.006 215.631 254.33 199.423 258.145L192.13 297.026C192.124 297.178 192.059 297.321 191.95 297.426C191.841 297.53 191.695 297.589 191.544 297.589H191.568ZM117.916 296.392H191.078L198.299 257.606C198.323 257.493 198.379 257.39 198.459 257.307C198.54 257.224 198.642 257.166 198.754 257.139C215.01 253.339 230.871 248.01 246.125 241.223C259.924 235.125 272.608 226.764 283.657 216.487C294.354 206.316 302.858 194.061 308.646 180.478C314.72 166.5 317.805 149.758 317.805 130.706V129.509C317.805 109.656 314.003 91.5731 306.518 75.7644C299.175 60.1637 288.444 46.4015 275.108 35.4828C261.753 24.5448 245.528 16.0121 226.875 10.1243C208.223 4.23639 187.538 1.19672 165.192 1.19672C129.908 1.19672 99.0602 7.3 73.4852 19.2792C48.9141 30.6108 26.4907 46.1183 7.21021 65.1136L67.7939 145.162C80.9414 132.971 95.9328 122.938 112.212 115.436C127.756 108.483 142.893 104.952 157.205 104.952C171.971 104.952 183.509 107.992 191.592 113.976C199.674 119.959 203.787 128.516 203.787 139.298V139.909C203.787 153.168 196.458 164.19 182.027 172.639C167.595 181.088 142.57 186.724 107.227 189.573L102.647 194.707L117.916 296.392Z" fill="#27007F"/>
<path d="M43.1154 413.168C43.1201 415.126 43.705 417.038 44.7959 418.664C45.8869 420.289 47.435 421.553 49.2443 422.298C51.0536 423.042 53.0428 423.233 54.9603 422.845C56.8778 422.458 58.6373 421.51 60.0164 420.121C61.3954 418.732 62.332 416.965 62.7075 415.044C63.083 413.122 62.8807 411.133 62.1261 409.326C61.3715 407.52 60.0986 405.978 58.4683 404.896C56.838 403.814 54.9237 403.24 52.9675 403.247C51.6691 403.249 50.3838 403.507 49.1853 404.007C47.9868 404.507 46.8986 405.238 45.9833 406.16C45.068 407.082 44.3435 408.175 43.8513 409.378C43.3592 410.58 43.1091 411.868 43.1154 413.168Z" fill="white"/>
<path d="M42.3744 155.598V171.514L41.2744 185.54" fill="white"/>
<path d="M316.776 93.4041C316.743 93.6882 316.794 93.9757 316.924 94.2305C317.054 94.4853 317.256 94.6959 317.505 94.8358C317.755 94.9756 318.04 95.0385 318.325 95.0164C318.61 94.9943 318.882 94.8882 319.106 94.7116C319.331 94.535 319.499 94.2957 319.588 94.0239C319.677 93.7521 319.683 93.46 319.607 93.1845C319.53 92.9089 319.374 92.6623 319.157 92.4756C318.941 92.2889 318.674 92.1706 318.39 92.1356C318.008 92.0916 317.625 92.2001 317.322 92.4377C317.02 92.6752 316.824 93.0225 316.776 93.4041Z" fill="#27007F"/>
</svg>
